<?xml version="1.0" encoding="UTF-8"?>
<svg width="195px" height="304px" viewBox="0 0 195 304" version="1.1" xmlns="http://www.w3.org/2000/svg" xmlns:xlink="http://www.w3.org/1999/xlink">
    <!-- Generator: Sketch 51 (57462) - http://www.bohemiancoding.com/sketch -->
    <title>handshake</title>
    <desc>Created with Sketch.</desc>
    <defs>
        <polygon id="path-1" points="0.54091108 0.156490122 40.6789083 0.156490122 40.6789083 56.9654362 0.54091108 56.9654362"></polygon>
        <polygon id="path-3" points="0.260855933 0.113416667 43.6517187 0.113416667 43.6517187 35 0.260855933 35"></polygon>
        <polygon id="path-5" points="0.0634534727 0.524338938 30.8347278 0.524338938 30.8347278 92.4141 0.0634534727 92.4141"></polygon>
    </defs>
    <g id="Page-1" stroke="none" stroke-width="1" fill="none" fill-rule="evenodd">
        <g id="Artboard" transform="translate(-18.000000, -13.000000)">
            <g id="handshake" transform="translate(18.000000, 13.000000)">
                <path d="M96,96.7636519 C96.5984441,100.106201 97.5955781,104.806433 98.1940222,106.683943 C98.7916476,108.561453 100.785916,109.34765 104.176007,108.954552 C107.566099,108.561453 111.155945,105.697564 115.543171,106.932556 C119.930397,108.167547 128.668008,113.169667 127.988516,106.932556 C127.309024,100.696252 132.095758,90.2746998 125.314756,89.2915497 C118.534573,88.3083996 113.150213,90.0785541 111.554635,90.6686056 C109.959876,91.2578499 106.37003,89.2915497 103.378628,90.6686056 C100.387226,92.0448543 96,96.7636519 96,96.7636519" id="Fill-1-Copy" fill="#FFFFFF"></path>
                <path d="M113.834142,106.788561 C114.594057,106.788561 115.377822,106.883053 116.185437,107.111954 C117.155068,107.385656 118.3155,107.834497 119.544193,108.308589 C122.506544,109.45309 126.194268,110.878626 127.579221,109.826173 C128.090765,109.439242 128.288968,108.672711 128.166428,107.54776 C127.941085,105.465664 128.299659,102.939615 128.647542,100.496654 C129.363046,95.4681793 130.039074,90.7174803 125.829114,90.1049073 C119.384644,89.1648685 114.158998,90.7484348 112.210689,91.4709777 C111.455709,91.7520118 110.42933,91.562212 109.241758,91.3414576 C107.581296,91.0351711 105.699602,90.6857113 104.025981,91.4595734 C101.419737,92.66354 97.6448368,96.5638052 96.8808101,97.3694365 C97.4811755,100.706819 98.4614982,105.316593 99.0363686,107.130689 C99.5758751,108.831557 101.450989,109.503595 104.605786,109.140287 C105.759639,109.005065 106.955435,108.566 108.221137,108.100868 C109.923543,107.475262 111.792078,106.788561 113.834142,106.788561 M126.182754,111 C124.249249,111 121.632314,109.989906 119.245655,109.067788 C118.035056,108.601027 116.891894,108.159519 115.960094,107.894776 C113.237067,107.125802 110.833138,108.009634 108.506516,108.864955 C107.193937,109.347193 105.95373,109.80255 104.702009,109.948362 C101.096527,110.371135 98.926987,109.50278 98.2517815,107.374252 C97.6464816,105.468922 96.6497105,100.761396 96.035364,97.3116004 L96,97.1136547 L96.1365215,96.965399 C96.3190983,96.7690824 100.634328,92.1283532 103.678098,90.7207387 C105.591043,89.8377213 107.698901,90.2279107 109.393083,90.5415285 C110.45976,90.7386597 111.381691,90.9089094 111.92202,90.7093344 C113.929543,89.9623538 119.313916,88.3315411 125.949188,89.2976469 C130.967585,90.0291503 130.201913,95.4078996 129.461736,100.610697 C129.121255,103.003968 128.76926,105.479512 128.983911,107.459784 C129.138526,108.887764 128.834231,109.901116 128.079251,110.472959 C127.587445,110.846042 126.936912,111 126.182754,111" id="Fill-3-Copy" fill="#A6BBFE"></path>
                <path d="M94.6099479,97 L94,96.4827055 C94.1829016,96.2982855 98.5253662,91.9387789 101.589175,90.616464 C103.513366,89.7869564 105.6337,90.1535008 107.339402,90.4473486 C108.413639,90.6332991 109.341389,90.7932318 109.885128,90.6057508 C111.903666,89.9040363 117.323678,88.3720489 124,89.2796099 L123.879997,90.0371861 C117.394852,89.1548777 112.135397,90.6417166 110.175619,91.3212395 C109.415874,91.5837128 108.383017,91.4061798 107.187122,91.1995681 C105.51618,90.9118422 103.621783,90.5835592 101.938426,91.309761 C99.0235869,92.5677967 94.6538111,96.9556167 94.6099479,97" id="Fill-5-Copy" fill="#5E5E5E"></path>
                <path d="M132,93 C114.760203,94.0797907 111.408955,93.0486027 110.835416,94.4848135 C110.134892,96.2401822 115.040245,99.7039371 112.71918,101.020261 C110.767298,102.127593 111.816823,98.2652961 106.630588,95.9704371 C104.691321,95.1117888 100.609274,97.0502278 98.6683249,99.259222 C96.5432046,101.678018 96.5852529,106.622536 98.0233042,108.229667 C100.224111,110.688965 101.327458,111.85543 106.630588,110.276652 C111.934559,108.698683 111.340837,108.216706 114.441477,108.220756 C120.22648,108.229667 121.75031,111.109379 125.692757,110.996782 C129.635204,110.884186 132,93 132,93" id="Fill-7-Copy" fill="#EAEDF4"></path>
                <path d="M93.1539968,114 L93,113.171907 C94.0902643,112.956029 94.9184065,111.558728 95.7956966,110.080472 C96.2871757,109.249849 96.7958565,108.393085 97.3831739,107.700759 L97.4544384,107.616432 L97.5592873,107.579328 C97.5625638,107.578485 97.8574512,107.473076 98.2621023,107.221781 L98.6176055,107 L98.8273032,107.370196 C98.8977485,107.493314 98.9722895,107.607156 99.0525644,107.704132 L99.1328393,107.851705 C99.4039719,108.741356 99.9970233,109.343453 100.94394,109.692567 L101.038959,109.74232 C102.152978,110.539212 103.538949,110.808216 107.005514,109.706903 C108.927198,109.095531 110.042855,108.522949 110.857891,108.194073 C112.242224,107.635827 112.762372,107.303578 114.691428,107.303578 L114.706172,107.303578 C115.273011,107.303578 115.753022,107.575955 116.213374,107.710878 C117.179131,107.994218 118.334926,108.519576 119.558708,109.01036 C122.509221,110.195157 126.181388,111.701241 127.562445,110.612577 C128.071125,110.212023 128.268536,109.432839 128.146486,108.268281 C128.115359,107.964703 128.098157,107.656909 128.088327,107.335622 L128.90664,107.312011 C128.916469,107.611372 128.932033,107.909047 128.960702,108.192386 C129.115518,109.668956 128.81244,110.719672 128.059658,111.311649 C126.314088,112.688712 122.56656,111.185158 119.261364,109.857005 C118.055602,109.37381 116.917009,108.916757 115.988932,108.643537 C115.57609,108.522949 115.14195,108.439465 114.664396,108.389712 C112.919646,108.390555 112.475676,108.569329 111.156874,109.101434 C110.329551,109.435369 109.19833,109.891579 107.247158,110.512227 C104.009131,111.542706 102.142329,111.530057 100.617106,110.467534 C99.485066,110.035779 98.7314648,109.268401 98.3767807,108.184797 C98.3653129,108.170461 98.353845,108.155282 98.3423772,108.140947 C98.167083,108.233707 98.0253732,108.296952 97.9336305,108.334899 C97.4183966,108.960607 96.9490341,109.752439 96.494416,110.518974 C95.5204684,112.161667 94.6005834,113.714131 93.1539968,114" id="Fill-9-Copy" fill="#5E5E5E"></path>
                <path d="M150.089008,137 C149.209621,133.133881 147.37927,125.08771 147,116.030249 L147.928654,116 C148.306066,124.992058 150.126191,132.994083 151,136.840581 L150.089008,137 Z" id="Fill-11-Copy" fill="#A6BBFE"></path>
                <path d="M119,285.567394 C134.21975,289.095882 135.465567,287.97407 142.04067,287.179997 C148.61659,286.385109 156.188019,284.002075 157.981898,284.002075 C159.774959,284.002075 164.538186,281.619041 163.950042,279.83197 C163.361898,278.044083 160.173326,271.093092 160.173326,265.929987 C160.173326,260.766883 159.376591,256 159.376591,256 L143.010002,257.191925 C143.010002,257.191925 144.870957,264.733171 141.363364,268.410038 C137.856588,272.08609 132.675362,277.647046 131.081893,277.845972 C129.487607,278.044083 122.313727,279.037082 120.919033,280.229006 C119.524339,281.420116 119,285.567394 119,285.567394" id="Fill-13-Copy" fill="#88A4F8"></path>
                <path d="M117.912406,285.8328 C130.632754,288.768154 133.406894,288.366724 137.976307,287.705593 C138.751688,287.593357 139.580402,287.473747 140.514962,287.360691 C144.275353,286.90601 148.294206,285.945036 151.523728,285.172488 C153.970485,284.586728 155.739502,284.164817 156.554268,284.164817 C157.779287,284.164817 160.88081,282.799136 161.894959,281.401504 C162.145215,281.055783 162.231368,280.756759 162.150958,280.511805 C162.04101,280.175914 161.837524,279.655694 161.581525,278.998659 C160.449223,276.096894 158.342977,270.695613 158.342977,266.41424 C158.342977,262.134505 157.789133,258.088255 157.60616,256.871676 L142.039467,258.00715 C142.392286,259.761972 143.337512,265.874358 140.182656,269.188203 L139.385942,270.025471 C134.776323,274.878677 131.130803,278.606241 129.622707,278.793848 C126.669696,279.163328 120.783366,280.119386 119.64532,281.093468 C118.696812,281.90534 118.118353,284.518731 117.912406,285.8328 M132.798897,289 C129.673579,289 125.477497,288.431444 117.360203,286.546362 L117,286.462799 L117.045948,286.095777 C117.068923,285.91882 117.609638,281.756237 119.111169,280.470842 C120.659469,279.146943 128.053895,278.164668 129.520964,277.981157 C130.856753,277.814851 135.632114,272.787965 138.791073,269.461831 L139.587787,268.622924 C142.913309,265.131303 141.15742,257.803977 141.139369,257.730245 L141.022857,257.259999 L158.297028,256 L158.357746,256.36866 C158.365951,256.416996 159.163486,261.25054 159.163486,266.41424 C159.163486,270.541595 161.233629,275.849482 162.345419,278.701274 C162.609623,279.376331 162.817211,279.910479 162.930441,280.2562 C163.045313,280.606018 163.074851,281.172116 162.559571,281.881582 C161.442859,283.420943 158.124721,284.984062 156.554268,284.984062 C155.835502,284.984062 154.017254,285.419081 151.714907,285.969613 C148.464871,286.746258 144.420583,287.712966 140.613423,288.173382 C139.685427,288.286438 138.864098,288.405228 138.09364,288.516646 C136.284418,288.778804 134.750067,289 132.798897,289" id="Fill-15-Copy" fill="#5E5E5E"></path>
                <path d="M158.814024,222.043701 C157.614648,233.658245 158.814024,233.658245 160.812437,242.069089 C162.810851,250.479932 164.313763,257.198085 163.943777,258.720603 C163.574612,260.243121 159.213543,261.494348 155.816404,265.09923 C152.419265,268.70329 150.420851,268.503521 147.023712,266.90126 C143.626574,265.298999 137.231814,263.897329 137.231814,260.092677 C137.231814,256.288026 136.431957,254.685765 137.231814,247.877183 C138.030852,241.067778 138.919309,233.858836 136.876596,227.850973 C134.833882,221.84311 131.436743,201.817722 130.037198,196.41081 C128.638472,191.003898 126.840228,176.385423 126.840228,171.978999 C126.840228,167.573397 123.043571,151.152892 122.843401,147.7486 C122.643232,144.344309 123.842608,137.735495 122.843401,133.930844 C121.844195,130.125371 121.844195,116.36434 123.642439,112.102605 C125.441503,107.840869 121.101763,100.687829 122.172341,90.4749558 C123.24292,80.26126 127.040398,65.4421936 130.237367,58.6336111 C133.435157,51.8250286 131.036404,55.8302706 135.63292,50.2227674 C140.229435,44.6160864 153.618641,36.6056025 156.215922,38.2078637 C158.814024,39.8093028 158.814024,222.043701 158.814024,222.043701" id="Fill-17-Copy" fill="#FFFFFF"></path>
                <path d="M142.471212,267 C136.83273,264.639158 136.181884,262.314561 135.868361,256.749366 C135.66728,253.20975 136.053848,249.656131 136.427285,246.219484 C136.77692,243.004422 137.138045,239.678979 137.012472,236.397195 C136.879512,232.91936 135.946331,229.470356 135.043518,226.135852 C134.622478,224.57651 134.185845,222.965273 133.83621,221.367215 C132.964584,217.394312 132.170929,213.337387 131.403537,209.415556 C131.142542,208.083566 130.881547,206.751577 130.618089,205.420411 L130.036185,202.502721 C128.378291,194.211766 126.663765,185.638269 125.95875,176.957686 C125.467127,170.898246 124.415759,164.88576 123.399683,159.070972 C122.959767,156.551148 122.504256,153.945655 122.096349,151.352518 C121.678592,148.692658 121.841919,146.009733 122.000322,143.414949 C122.148055,140.992326 122.300713,138.48733 121.969134,136.04329 C121.192714,130.321584 120.957162,126.055429 121.182045,121.781037 C121.278071,119.944918 121.676951,118.069259 122.062698,116.255381 C122.570736,113.864885 123.09601,111.392014 122.901494,109.069888 C122.716007,106.866381 122.35324,104.709003 122.001964,102.62329 C121.360966,98.8176064 120.698629,94.8825952 121.146753,90.6716308 C122.722573,75.8475862 126.023588,63.9634736 130.958696,55.3471418 C134.787447,48.6600117 143.526683,41.7858924 151.737363,39 L152,39.7800828 C143.959213,42.509137 135.409568,49.2275693 131.670277,55.7573649 C126.861564,64.1537578 123.504738,76.2569855 121.962568,90.7589473 C121.525935,94.8562355 122.150518,98.5622466 122.811213,102.485725 C123.164952,104.588736 123.531002,106.762589 123.718951,109.000694 C123.924136,111.44391 123.385731,113.976914 122.865382,116.427543 C122.4862,118.210119 122.094707,120.053652 122.001964,121.824695 C121.779543,126.045544 122.013454,130.264746 122.782487,135.932908 C123.124736,138.456851 122.969616,141.003035 122.81942,143.465197 C122.66348,146.015499 122.502615,148.653118 122.90724,151.224014 C123.313506,153.810561 123.768196,156.411936 124.208112,158.928465 C125.227471,164.762199 126.281301,170.793631 126.777027,176.890139 C127.477939,185.522946 129.18754,194.072554 130.84133,202.341267 L131.423235,205.259782 C131.686692,206.591771 131.947687,207.923761 132.208683,209.256574 C132.975254,213.174286 133.768088,217.226269 134.637252,221.190111 C134.983604,222.768399 135.416954,224.370575 135.836352,225.920032 C136.749836,229.299018 137.695328,232.794151 137.832391,236.365069 C137.961247,239.70781 137.596018,243.063732 137.2431,246.309271 C136.873767,249.712146 136.490482,253.231168 136.687459,256.702413 C136.992774,262.107802 137.532821,264.039475 142.787197,266.238863 L142.471212,267 Z" id="Fill-19-Copy" fill="#5E5E5E"></path>
                <path d="M160.940096,255.680417 C160.121196,257.403112 154.719865,263.498108 152.354242,261.657398 C149.988618,259.817507 152.847046,239.80327 149.750348,234.339328 C146.653651,228.875386 146.756928,216.43953 145.848574,210.57237 C144.939407,204.705209 138.79887,220.778229 139.146924,212.036906 C139.146924,212.036906 140.716416,196.367104 140.793671,189.264062 C140.870926,182.16102 137.492858,170.141495 135.978664,166.863294 C134.463656,163.585093 131.752419,156.270607 133.650448,157.059014 C135.547663,157.848241 139.92923,161.347721 141.552394,167.019828 L155.828268,198.006205 C155.828268,198.006205 159.130708,221.499434 159.130708,226.416735 C159.130708,231.334037 159.900816,236.253797 159.900816,239.804909 C159.900816,243.35602 160.670924,246.494078 161.571959,249.333 C162.473808,252.172742 161.799658,253.87085 160.940096,255.680417" id="Fill-21-Copy" fill="#EAEDF4"></path>
                <path d="M151.474795,268 C150.039527,268 148.463303,267.843607 146.740319,267.532467 L146.888738,266.721693 C152.556013,267.748125 156.517717,267.045179 159.003524,264.57417 C164.133507,259.47658 161.947025,247.621166 160.01841,237.161765 C158.946312,231.352176 157.934743,225.863604 158.318642,222.170259 C158.311179,195.647648 158.225776,168.684668 158.063262,142.073983 C158.022633,135.409171 158.005221,128.738597 157.987809,122.063907 C157.923964,97.9719731 157.858461,73.0593874 156.654527,48.6382051 C156.37759,43.0212261 155.924871,39.8283391 154.329576,39.0414352 C152.492998,38.1327094 148.659813,40.296695 143.467644,43.8204768 L143,43.1405787 C149.682991,38.6068272 152.744232,37.3367513 154.69855,38.3039187 C156.682719,39.2826097 157.176895,42.4030621 157.482853,48.5978721 C158.687616,73.0379863 158.753119,97.9604494 158.816964,122.061438 C158.834376,128.735304 158.851789,135.405055 158.892417,142.069044 C159.054932,168.681375 159.140335,195.646002 159.146139,222.213061 C158.771361,225.831502 159.77298,231.262455 160.834299,237.013603 C162.799396,247.672199 165.027336,259.752326 159.589737,265.156116 C157.676047,267.056703 154.999534,268 151.474795,268" id="Fill-23-Copy" fill="#5E5E5E"></path>
                <path d="M168.321465,277.817314 C164.702728,283.98981 162.290512,287.176195 158.269877,290.163123 C154.249241,293.150052 150.831866,294.344333 148.821548,295.339976 C146.81123,296.335619 146.007433,298.724999 148.821548,300.318191 C151.636488,301.911383 161.084817,302.508933 168.321465,301.51329 C175.558114,300.517647 181.187169,299.522004 184.604544,297.928812 C188.021919,296.335619 187.01676,289.366119 186.212963,286.578645 C185.409166,283.791172 184.260413,278.275899 184.130848,275.756546 C184.001284,273.237193 168.321465,277.817314 168.321465,277.817314" id="Fill-25-Copy" fill="#88A4F8"></path>
                <path d="M161.200183,303 C155.944475,303 150.98296,302.358581 149.037967,301.24872 C147.692963,300.480673 146.969495,299.433712 147.000986,298.301505 C147.031649,297.178402 147.820585,296.09668 149.058685,295.478435 C149.507848,295.254146 150.027452,295.019097 150.606724,294.757564 C152.618014,293.848818 155.372662,292.60488 158.482828,290.27591 L158.980057,290.938847 C155.796964,293.322441 152.995079,294.587898 150.948154,295.511541 C150.379656,295.768936 149.869997,295.998191 149.42912,296.219171 C148.464496,296.700028 147.852076,297.506974 147.829701,298.324679 C147.806497,299.149833 148.366708,299.912087 149.449009,300.529504 C152.230176,302.117739 161.618684,302.679705 168.768005,301.689023 C176.078097,300.675168 181.636287,299.675382 185.000039,298.095423 C188.024019,296.673543 187.244199,290.068173 186.393109,287.09199 C185.542848,284.119946 184.413309,278.528431 184.286516,276.042209 L185.114402,276 C185.238709,278.43408 186.351673,283.933728 187.190332,286.86439 C187.969324,289.589799 189.159358,297.054256 185.353072,298.844435 C181.894017,300.469086 176.267044,301.484597 168.882368,302.508384 C166.469151,302.843577 163.798204,303 161.200183,303" id="Fill-27-Copy" fill="#5E5E5E"></path>
                <path d="M160.633488,42 C166.387539,46.0169004 167.578425,45.2130256 171.348208,49.6322757 C175.117991,54.0507012 177.697703,54.3293778 180.475352,61.6211404 C183.253815,68.912903 190,79.7582043 190,92.8123062 C190,105.867233 178.366456,149.649963 178.527739,155.072614 C178.689836,160.495264 180.277414,163.50794 180.277414,172.14444 C180.277414,180.780117 184.245949,189.818143 184.245949,196.646544 C184.245949,203.475769 183.451753,205.68457 184.245949,213.919545 C185.03933,222.153696 187.222351,223.760621 186.230217,231.994773 C185.238083,240.228924 184.840578,242.638899 184.840578,253.28385 C184.840578,263.927977 188.611175,266.137602 187.81698,269.150277 C187.023598,272.162952 183.650506,277.785953 180.277414,278.188303 C176.904321,278.589828 170.752765,279.794403 168.173869,278.188303 C165.594158,276.581378 160.633488,272.564477 160.633488,268.949102 C160.633488,265.334551 163.557758,259.108026 163.484448,254.48925 C163.411137,249.86965 163.213199,245.049699 160.633488,236.614373 C158.053777,228.179047 153.093108,217.935621 150.514211,207.894195 C147.9345,197.851944 143.569274,180.378592 143.370521,174.755591 C143.172583,169.131765 139.401986,161.508559 139.005295,160.500211 C138.608604,159.491864 160.633488,42 160.633488,42" id="Fill-29-Copy" fill="#FFFFFF"></path>
                <path d="M134.074362,11 C132.488881,18.3229367 134.271208,16.5372258 132.608307,20.2211001 C130.946229,23.9049744 129,26.788999 129,26.788999 L132.962466,29 L138.034357,27.4062192 L143,22.662079 L143,14.7971722 L134.074362,11 Z" id="Fill-31-Copy" fill="#F4E4D3"></path>
                <polygon id="Fill-33-Copy" fill="#FFFFFF" points="150 57.3332414 156.41853 77 163 46.0126897 158.499087 41 150 46.1641379"></polygon>
                <path d="M139,160.50003 C139.396732,161.508376 143.166906,169.131571 143.36568,174.755388 C143.564453,180.379205 147.930132,197.851706 150.509297,207.893941 C153.089275,217.936177 158.05046,228.178763 160.630439,236.614076 C163.209603,245.049389 163.408376,249.869332 163.481694,254.488926 C163.555012,259.107694 160.630439,265.33421 160.630439,268.94958 C160.630439,272.564125 165.591624,276.58102 168.170788,278.187942 C170.750767,279.794865 176.902147,278.589467 180.276404,278.187942 C183.649847,277.786418 187.023289,272.162601 187.816753,269.14993 C188.611031,266.137259 184.840042,263.928462 184.840042,253.283527 C184.840042,242.639417 185.236774,240.229446 186.229011,231.994482 C187.221248,223.760344 185.038815,222.153421 184.244537,213.919283 C183.451073,205.68432 184.244537,203.475522 184.244537,196.647132 C184.244537,189.817917 180.276404,180.780729 180.276404,172.144242 C180.276404,163.508579 178.688662,160.495908 178.526548,155.073265 C178.364434,149.650623 190,105.867135 190,92.8130531 C190,79.7581467 183.2523,68.9128619 180.474363,61.6211105 C177.696425,54.329359 175.116446,54.0506828 171.346272,49.632264 C167.576097,45.2138452 166.385087,46.0168943 160.630439,42" id="Fill-35-Copy" fill="#FFFFFF"></path>
                <path d="M183.77464,213.81336 C182.982732,205.598195 183.77464,203.393665 183.77464,196.581009 C183.77464,189.768353 179.813474,180.751167 179.813474,172.13458 C179.813474,163.518816 178.228846,160.513088 178.067862,155.10294 C178.030462,153.859191 178.616669,150.587767 179.540291,146.13511 C176.836909,141.744146 174.818926,139 174.818926,139 C164.291593,155.807074 155.735085,163.43409 154.453723,170.684362 C153.172361,177.935456 154.752111,177.695261 157.349797,177.951907 C159.948295,178.209377 163.619203,179.330561 167.610451,176.713916 C171.601699,174.096448 171.601699,176.838949 169.975605,181.49972 C168.349511,186.161314 166.68439,190.548164 166.026635,194.387173 C165.368067,198.226181 164.787551,209.941448 166.026635,214.77743 C167.265719,219.613413 169.433302,219.648784 171.872444,214.695172 C174.311585,209.742383 175.124632,204.08546 176.750726,208.28476 C178.37682,212.484061 180.002914,218.790827 180.274472,222.629012 C180.545217,226.46802 178.571139,229.758364 178.067862,238.258143 C177.563773,246.758746 175.861253,255.258525 178.067862,262.387877 C180.274472,269.516405 180.274472,267.868766 179.189867,271.434676 C178.106076,275.000585 180.299677,273.808658 180.299677,273.808658 C180.299677,273.808658 184.610452,273.137428 184.881197,269.819117 C185.152755,266.500806 181.900566,257.792089 181.900566,255.291428 C181.900566,253.341077 184.111241,243.316224 185.188529,236.547987 C185.350325,235.161108 185.538952,233.643437 185.755223,231.846909 C185.764166,231.637973 185.793436,231.377213 185.831649,231.094243 C186.598352,223.540437 184.541343,221.765297 183.77464,213.81336" id="Fill-37-Copy" fill="#EAEDF4"></path>
                <path d="M175.105779,280 C172.294237,280 169.439008,279.185722 166.880513,277.55222 C159.994665,273.156931 161.154395,268.20368 162.497111,262.468294 C162.862257,260.910616 163.239767,259.300191 163.473032,257.618064 C164.143978,252.795856 163.611507,247.158545 161.846772,240.383882 C159.918009,232.976258 157.314179,225.658469 154.796072,218.582161 C151.988651,210.689926 149.084792,202.529836 147.081021,194.163705 C146.197417,190.470607 145.476192,186.744542 144.778046,183.140455 C143.289436,175.449317 141.883253,168.184274 139,160.944781 L139.765735,160.640663 C142.677837,167.951859 144.15738,175.592722 145.587467,182.983039 C146.28314,186.578061 147.003541,190.296707 147.883024,193.971674 C149.876079,202.295773 152.771696,210.434434 155.572523,218.30524 C158.0964,225.398856 160.705999,232.733953 162.644653,240.176192 C164.437413,247.057997 164.974829,252.800801 164.289047,257.730151 C164.050012,259.45019 163.669205,261.080394 163.299938,262.656204 C161.97618,268.309998 160.930197,272.776166 167.323963,276.857447 C172.274454,280.017308 178.393743,279.94066 182.913971,276.657998 C186.830019,273.813793 188.420836,269.231418 187.167965,264.398496 C185.174086,256.70571 185.81371,249.152208 186.431903,241.847605 C186.915742,236.14024 187.415242,230.24002 186.644561,224.337327 C185.865638,218.371174 185.322452,212.378646 184.7974,206.584744 C184.029192,198.102405 183.234608,189.331607 181.689125,180.631687 C179.784265,169.913379 178.078876,158.638758 179.922741,148.945716 C181.108023,142.715004 182.538934,136.425776 183.923687,130.344239 C184.981209,125.696755 186.074999,120.89103 187.050096,116.147942 C189.752012,103.012349 192.303914,90.6053204 187.383096,76.9711056 C181.663573,61.1223509 174.767834,52.1479832 161.034054,42.6774663 L161.502232,42 C175.396742,51.5809555 182.372434,60.6591684 188.157898,76.6908884 C193.157845,90.5443319 190.583688,103.061799 187.857868,116.314424 C186.880299,121.065753 185.785685,125.875599 184.727338,130.527204 C183.344234,136.602148 181.914971,142.883134 180.732162,149.100659 C178.914674,158.655241 180.609347,169.844973 182.500194,180.486633 C184.052271,189.221992 184.848504,198.010922 185.618361,206.509745 C186.142588,212.297054 186.68495,218.280515 187.4614,224.23101 C188.243621,230.221064 187.740824,236.166614 187.253688,241.916835 C186.641264,249.153032 186.00741,256.635655 187.965846,264.192454 C189.306913,269.364933 187.599051,274.274503 183.398635,277.32475 C180.94482,279.105777 178.050027,280 175.105779,280" id="Fill-39-Copy" fill="#5E5E5E"></path>
                <path d="M41.6428171,263.115426 C45.3127333,267.730389 50.1641917,270.163172 53.4988952,271.770923 C56.8335986,273.378675 62.2907632,274.905877 61.9879101,275.628389 C61.685057,276.351714 61.685057,278.251563 59.8654489,279.234439 C58.0466706,280.216502 55.9242095,282 47.4351945,282 C38.9461796,282 34.0731481,281.819372 31.6702366,279.234439 C29.2664954,276.648693 25,260 25,260 L41.6428171,263.115426 Z" id="Fill-41-Copy" fill="#88A4F8"></path>
                <path d="M25.1250435,260.041633 C25.9246131,263.084082 29.4915405,276.331429 31.5423578,278.542041 C33.8738132,281.056327 38.9394147,281.183673 47.0106675,281.183673 C54.5156622,281.183673 56.9102196,279.802449 58.6588112,278.793469 C58.8638929,278.675102 59.0581808,278.562449 59.2491476,278.459592 C60.5020558,277.781224 60.782694,276.604082 60.9877757,275.743673 C61.0384234,275.531429 61.0840894,275.340408 61.1397188,275.17551 C60.7478218,274.812245 58.8713655,274.100408 57.3477827,273.522449 C55.8806596,272.965714 54.217588,272.33551 52.8949354,271.69551 C48.985098,269.805714 44.5231175,267.421224 40.9835896,263.017959 L25.1250435,260.041633 Z M47.0106675,282 C38.7119152,282 33.4952007,281.860408 30.9279429,279.092245 C28.4810772,276.453061 24.3329464,260.305306 24.1577552,259.619592 L24,259 L41.4452311,262.272653 L41.5415448,262.394286 C45.2770212,267.102857 50.2753692,269.519184 53.2619237,270.964082 C54.5505344,271.586939 56.1953396,272.209796 57.6458569,272.760816 C60.5759517,273.871837 61.7059769,274.34449 61.9484216,274.899592 C62.0140146,275.04898 62.0173357,275.210612 61.9567245,275.355102 C61.8961134,275.500408 61.8512777,275.699592 61.7964785,275.930612 C61.5830939,276.82449 61.226069,278.321633 59.6501779,279.174694 C59.4650231,279.275102 59.2773775,279.382857 59.0797684,279.497143 C57.3519341,280.493878 54.7415012,282 47.0106675,282 Z" id="Fill-43-Copy" fill="#5E5E5E"></path>
                <path d="M151.678386,49.0831451 C159.003988,45.2637685 161.379749,46.4694965 161.182243,42.8514873 C160.983924,39.2326528 159.399812,40.2221585 159.399812,38.2200393 C159.399812,36.2170949 163.307667,30.1859791 164.026979,25.3614166 C164.745478,20.5368541 168.507032,15.309557 166.329589,11.8920898 C164.151334,8.47462257 155.835764,1.23777882 150.292593,1.03641151 C144.748609,0.835044212 140.195405,1.48040991 137.621326,2.68696318 C135.047246,3.89351644 131.681517,6.06234132 131.681517,8.47462257 C131.681517,10.8869038 131.681517,13.9024617 132.869804,14.304371 C134.057278,14.7062804 138.029342,14.3654414 139.595573,19.8089608 C140.317323,22.3177993 138.8088,25.3614166 137.621326,27.1704212 C136.433039,28.9802511 130.889867,24.75814 130.49323,23.752954 C130.097405,22.7477681 129.503262,24.557598 128.513294,26.5671446 C127.524138,28.5775165 128.513294,29.3821605 128.513294,32.3977183 C128.513294,35.4132762 127.127501,37.6241902 128.909931,41.644934 C130.691549,45.6656779 136.631358,45.6656779 136.037214,48.0779591 C135.443071,50.4902404 133.265628,53.3044309 134.84974,55.5161702 C136.433039,57.7279094 141.38288,57.5265421 144.551103,54.5109842 C147.718513,51.4954263 151.678386,49.0831451 151.678386,49.0831451" id="Fill-45-Copy" fill="#FFFFFF"></path>
                <g id="Group-49-Copy" transform="translate(127.000000, 0.000000)">
                    <mask id="mask-2" fill="white">
                        <use xlink:href="#path-1"></use>
                    </mask>
                    <g id="Clip-48"></g>
                    <path d="M12.254654,56.9654362 L12.161994,56.1474255 C14.531794,55.8774985 16.699874,54.0949924 18.612934,52.5223381 L19.320594,51.9421596 C22.411174,49.4436884 25.382854,47.6743495 28.671874,46.3757371 C29.076134,46.2152622 29.536154,46.0753609 30.024054,45.9255843 C31.685374,45.4178252 33.568094,44.8417614 33.894454,43.318484 C34.160954,42.0717173 33.649274,41.1491922 33.108074,40.1723526 C32.550474,39.1675327 31.974014,38.1281489 32.297094,36.7587629 C32.772694,34.7425395 33.653374,32.8505813 34.504534,31.0219901 C35.415554,29.064196 36.356914,27.0405661 36.791514,24.877035 C37.024394,23.7191467 37.542634,22.376095 38.092034,20.9548632 C39.323674,17.7675843 40.719314,14.1548412 39.175254,11.7543009 C39.174434,11.753478 39.173614,11.752655 39.172794,11.7510091 C36.489754,7.58935942 31.745234,4.5460965 29.155674,3.10182219 C24.992534,0.780284954 19.686314,0.361404255 13.383794,1.85258663 C10.927074,2.43358815 8.606474,3.58571581 6.850034,5.09500304 C4.805774,6.85199772 4.679494,9.00894529 5.119014,11.704924 C5.295314,12.7871011 5.427334,12.8899696 5.982474,13.3244863 C6.103014,13.4191254 6.239134,13.5252857 6.392474,13.6536657 L7.264954,13.8034422 L7.215754,14.1943427 C7.160814,14.6321512 7.124734,15.0781892 7.108334,15.5184666 C7.101774,15.7143283 7.110794,15.9143047 7.118174,16.1142812 C7.127194,16.3455296 7.136214,16.5759552 7.127194,16.8047348 C7.032894,19.2324324 5.676614,21.5103533 4.479414,23.5199932 L3.852934,24.5791277 L3.479014,24.1849354 C3.290414,23.9866049 3.182994,23.8179005 3.104274,23.6944582 C3.090334,23.6722386 3.078034,23.6516649 3.065734,23.6319141 C3.037854,23.6384977 2.997674,23.6483731 2.941094,23.665655 C2.709854,23.8211922 2.251474,25.0712508 2.100594,25.481902 C2.023514,25.6909309 1.961194,25.8612812 1.917734,25.959212 C1.301914,27.3565783 1.418354,28.284041 1.595474,29.6888138 C1.627454,29.941459 1.661074,30.2064483 1.691414,30.4878967 C1.847214,31.9115973 1.697974,33.3394126 1.554474,34.7211429 C1.282234,37.3381185 1.024754,39.8102553 2.777914,42.0676026 C3.636454,43.1728222 4.902534,43.8657447 6.234214,44.5348017 C6.699974,44.768519 11.269834,47.2521771 12.106234,48.3006132 L11.466634,48.8149559 C10.846714,48.0372698 6.856594,45.7684012 5.866854,45.2705175 C4.447434,44.5578442 3.094434,43.8147219 2.130934,42.5745388 C0.175234,40.054671 0.461414,37.3002629 0.739394,34.6355562 C0.877974,33.2974422 1.022294,31.9140661 0.876334,30.578421 C0.845994,30.3010874 0.813194,30.0410357 0.782034,29.7925053 C0.601634,28.3622211 0.459774,27.233136 1.168254,25.6259179 C1.206794,25.5378625 1.262554,25.3847941 1.330614,25.1979848 C1.849674,23.7833366 2.203094,23.0360995 2.695094,22.8813853 C3.253514,22.7052743 3.507714,22.8394149 3.736494,23.1636565 L3.775854,23.0978207 C4.922214,21.1729445 6.221914,18.9904856 6.308014,16.7726398 C6.316214,16.5652568 6.307194,16.356228 6.298994,16.1463761 C6.290794,15.9282948 6.281774,15.7085676 6.288334,15.4904863 C6.301454,15.1539005 6.324414,14.8173146 6.358034,14.4831976 L6.031674,14.4264141 L5.946394,14.3531717 C5.767634,14.1992804 5.612654,14.0791299 5.478174,13.9737926 C4.809874,13.4503974 4.529434,13.1845851 4.309674,11.8382416 C3.890654,9.26735106 3.843914,6.59523784 6.317034,4.46956231 C8.171054,2.87633435 10.613834,1.66248556 13.195194,1.05268085 C19.703534,-0.487878419 25.206554,-0.0410174772 29.553374,2.3817424 C31.967454,3.72890881 36.210134,6.43558587 39.050614,10.1528435 C39.096534,10.192345 39.148194,10.2491284 39.210514,10.3306003 L39.226914,10.319902 L39.757454,11.1428503 C39.790254,11.1938731 39.824694,11.2473647 39.860774,11.3033252 C39.896034,11.3584628 39.930474,11.4119544 39.963274,11.4621543 L40.494634,12.2867485 L40.478234,12.2974468 C40.630754,12.5821869 40.615174,12.676826 40.495454,12.772288 C41.145714,15.3258967 39.941134,18.4448708 38.856274,21.2527705 C38.320814,22.6402614 37.814054,23.9503951 37.595114,25.0391558 C37.141654,27.2989719 36.178974,29.3686869 35.247454,31.3692743 C34.413514,33.1616558 33.551694,35.0141125 33.094954,36.948864 C32.845674,38.0071755 33.299134,38.8251862 33.824754,39.7715767 C34.388094,40.7895638 35.027694,41.9416915 34.695594,43.4921261 C34.268374,45.4877758 32.047814,46.1667082 30.262674,46.7131459 C29.791174,46.8571619 29.345914,46.9937713 28.972814,47.141079 C25.762514,48.4092424 22.859714,50.1382568 19.834734,52.5840593 L19.132814,53.1584772 C17.132014,54.8035509 14.864714,56.6683518 12.254654,56.9654362" id="Fill-47" fill="#5E5E5E" mask="url(#mask-2)"></path>
                </g>
                <path d="M56.1382243,163.2433 C56.4463144,157.818768 58.877728,140.044769 57.6620212,131.611187 C56.4463144,123.177606 53.3987206,121.66896 53.3987206,117.753074 C53.3987206,113.837188 51.5751603,96.5743149 51.5751603,89.5422085 C51.5751603,82.5101021 50.6675436,75.5851673 47.6282765,69.2620423 C44.5890095,62.9306734 38.5104753,52.9884456 38.5104753,52.9884456 C38.5104753,52.9884456 17.8351326,43.0544618 14.4877754,48.7757769 C11.1404183,54.4970921 5.08686441,56.6817442 3.5630675,62.0650566 C3.11342251,63.6478988 2.48891558,64.9174702 2.03927059,66.063382 C1.51468476,67.423637 0.573760988,68.5942808 0.573760988,69.8803401 L0.573760988,69.896828 C-0.258914919,71.1828874 0.0599999535,72.5761183 0.0599999535,74.3815477 C0.0599999535,78.2644576 0.856870797,88.2066854 1.48970449,95.0162046 C1.49803125,95.1481081 1.4064369,95.2800116 1.4064369,95.4036712 L1.4064369,95.4201591 C1.4064369,95.5685506 1.65207629,95.73343 1.66872981,95.8983094 C1.83526499,97.6790069 2.08506776,99.2041413 2.15168183,100.267613 C2.3015635,102.592413 3.55307539,105.782829 4.80208925,109.245297 C6.30923264,113.441477 7.9004763,118.033369 7.73394112,121.990474 C7.43417779,129.203948 8.05452134,138.239339 7.74643126,143.960654 C7.44666793,149.690214 6.53738584,147.579757 9.88474299,159.327414 C10.4426358,161.297723 11.3036227,164.438676 12.3278141,168.305098 C13.1754782,171.465836 14.1413822,175.116266 15.1605775,179 L54.0049086,172.943155 C55.0898853,169.239964 56.0008328,165.732979 56.1382243,163.2433" id="Fill-50-Copy" fill="#FFFFFF"></path>
                <path d="M27.7831824,224.023362 L31.9624392,262.667045 C38.9278672,265.963197 37.7172095,265.069464 39.5331961,264.167532 C41.3574748,263.2656 43.1320006,263.372192 43.9114651,255.082618 C44.6909297,246.793044 43.7290372,238.618261 43.9114651,233.911816 C44.1021852,229.197172 49.2350422,224.917095 49.2350422,219.530101 C49.2350422,214.134909 51.1422428,210.240203 51.0924897,203.951277 C51.0510288,197.654153 49.6247745,191.668605 51.0924897,185.076302 C51.8910263,181.509571 53.3512785,176.877741 54.6821728,172.552568 C56.3041225,167.279546 56.9708134,160.771697 56.9708134,160.771697 C56.9708134,160.771697 57.3149387,157.637893 55.6399191,158.034743 C52.0245303,158.891579 50.4448708,169.794296 50.4448708,169.794296 L43.0872228,174.358891 L16,178.576653 C16.9096517,182.039251 17.863252,185.686336 18.8193399,189.356379 C23.2805307,206.509484 27.7831824,224.023362 27.7831824,224.023362" id="Fill-52-Copy" fill="#EAEDF4"></path>
                <path d="M165.318286,11.6798431 C163.263816,8.51346159 155.841456,2.07276313 150.280262,1 C147.206405,2.30016914 146.181236,5.83649737 150.570217,8.99958313 C155.142589,12.2953224 154.936069,15.3850779 151.838255,17.8568824 C148.740442,20.3286868 145.118892,26.3022143 149.201397,29.3919698 C153.283902,32.4817254 152.664339,34.7475461 152.664339,34.7475461 C151.218693,37.8373017 150.435566,40.3091061 147.832577,41.7509921 C145.229587,43.192878 141.596472,44.6347639 139.798915,45.0467313 C138.001357,45.4586987 139.798915,47.3776429 139.798915,49.3723891 C139.798915,51.4322261 138.132704,55.5716747 139.804697,54.9339491 C142.821554,53.7829122 150.186088,45.5748735 150.186088,45.5748735 C150.186088,45.5748735 153.753943,44.6347639 155.893499,44.6347639 C156.92693,44.6347639 158.463445,44.7237489 159.710831,44.544955 C160.023917,44.0909669 160.136264,43.4894945 160.086699,42.5881098 C159.885135,38.9759796 158.275098,39.9638774 158.275098,37.9650116 C158.275098,35.9653218 162.246907,29.9440061 162.977991,25.1272832 C163.708249,20.3105603 167.53219,15.0917572 165.318286,11.6798431" id="Fill-54-Copy" fill="#EAEDF4"></path>
                <path d="M28.6987953,276.230511 C31.6835343,282.758216 30.7816115,283.658729 37.095894,287.065901 C43.4109993,290.47226 49.9573459,292.879854 52.7322397,294.329282 C55.2882362,295.664217 56.190159,297.444132 52.7322397,300.263412 C49.6215936,302.79849 45.0642501,303.971837 35.2920484,302.031958 C21.5772261,299.310118 23.8657729,299.373455 19.355336,298.482685 C14.8448991,297.592728 11.237208,293.106403 12.1391308,289.564439 C13.0410535,286.021663 13.6426097,280.424515 16.0480115,275.212258 L18.4534132,270 L28.6987953,276.230511 Z" id="Fill-56-Copy" fill="#88A4F8"></path>
                <g id="Group-60-Copy" transform="translate(12.000000, 269.000000)">
                    <mask id="mask-4" fill="white">
                        <use xlink:href="#path-3"></use>
                    </mask>
                    <g id="Clip-59"></g>
                    <path d="M7.23775556,1.31758333 L5.04753333,6.23675 C3.33805185,10.0750833 2.55012593,14.16925 1.9162,17.4584167 C1.67582963,18.7075833 1.4484963,19.8875833 1.20079259,20.8950833 C0.869162963,22.2475833 1.20079259,23.82675 2.1362,25.33925 C3.44153333,27.4525833 5.70101481,29.06175 8.03138519,29.5384167 C9.68138519,29.87675 10.4253111,30.0825833 11.3664222,30.3434167 C12.9936074,30.7950833 15.2213111,31.4134167 23.8110889,33.1809167 C34.3564222,35.34925 38.2862741,33.52425 40.7396815,31.4525833 C42.2153111,30.2059167 42.9184963,29.11925 42.8296815,28.2250833 C42.7522741,27.4575833 42.0914593,26.74675 40.8081259,26.05175 C39.7830889,25.4975833 38.185237,24.7825833 36.3347926,23.9559167 C33.1676074,22.5400833 29.227163,20.77925 25.3217556,18.59425 C20.2218296,15.7434167 19.7256074,14.47925 18.2507926,10.72675 C17.8784222,9.77841667 17.4579778,8.70841667 16.8819037,7.39758333 L7.23775556,1.31758333 Z M32.0179037,35.0000833 C29.6378296,35.0000833 26.8804963,34.6625833 23.6505704,33.9984167 C15.0339037,32.2259167 12.7907185,31.6025833 11.1537556,31.1484167 C10.2264963,30.8909167 9.49479259,30.6875833 7.87168148,30.3559167 C5.32945926,29.8359167 2.8679037,28.08425 1.44768148,25.78425 C0.391681481,24.07675 0.0233851852,22.2684167 0.411237037,20.69175 C0.653237037,19.7050833 0.878125926,18.5350833 1.11686667,17.2975833 C1.75894074,13.9650833 2.55745926,9.81841667 4.30523704,5.89175 L6.87923704,0.113416667 L17.5223481,6.82175 L17.5736815,6.93841667 C18.183163,8.31841667 18.6207185,9.43258333 19.0069407,10.4159167 C20.4377556,14.0559167 20.8687926,15.1550833 25.7120519,17.8634167 C29.5864963,20.02925 33.5090148,21.7834167 36.6607185,23.19175 C38.5266444,24.0259167 40.1375333,24.7459167 41.1894593,25.3150833 C42.7319037,26.1509167 43.5328667,27.07425 43.6396074,28.1409167 C43.7602,29.3459167 42.981237,30.6400833 41.2579037,32.0959167 C38.9479037,34.0475833 36.0153852,35.0000833 32.0179037,35.0000833 Z" id="Fill-58" fill="#5E5E5E" mask="url(#mask-4)"></path>
                </g>
                <path d="M8,266.309918 C10.9969562,273.505666 14.29328,280.219729 21.486303,278.811597 C28.6785058,277.403466 28.6785058,280.442929 31.9748295,275.175566 C35.2719735,269.908203 34.3722305,272.606301 34.3722305,264.810701 C34.3722305,257.015102 35.8707086,253.117303 37.0698191,244.421517 C38.2681095,235.726552 44.5622097,231.529237 44.5622097,221.63457 C44.5622097,211.739904 44.8615772,211.140053 44.5622097,208.441955 C44.2620219,205.743036 45.4611325,206.342887 46.9596106,194.649489 C48.4580887,182.955269 48.157901,174.260304 49.3570115,170.062169 C50.5561221,165.864854 52.05378,147.875073 33.7734954,151.472537 C15.4923905,155.070822 8,147.875073 10.0980334,159.268136 C12.1952466,170.66202 12.7948019,178.158104 13.3943571,183.854635 C13.9939124,189.551987 14.29328,192.550421 13.9939124,194.949004 C13.6937247,197.347587 14.8928353,200.645535 14.8928353,204.24382 C14.8928353,207.842104 15.1922028,209.940351 14.8928353,212.63927 C14.5934677,215.338188 10.3974009,217.736771 10.3974009,224.332668 C10.3974009,230.929386 10.9969562,236.026888 10.9969562,239.024501 C10.9969562,242.022934 9.79784565,244.122002 9.79784565,248.619652 C9.79784565,253.117303 8,266.309918 8,266.309918" id="Fill-61-Copy" fill="#FFFFFF"></path>
                <path d="M10.1306521,159 C12.2613041,170.419417 12.8701809,177.9323 13.4782247,183.641598 C14.0871014,189.350895 14.3911233,192.356048 14.0871014,194.760829 C13.7830795,197.164787 15,200.470126 15,204.076475 C15,207.682 15.3048548,209.785772 15,212.490739 C14.6959781,215.194883 10.434674,217.598841 10.434674,224.210343 C10.434674,230.821022 11.0435507,235.929947 11.0435507,238.9351 C11.0435507,241.940253 9.82663018,244.044024 9.82663018,248.551754 C9.82663018,253.058661 8,266.281664 8,266.281664 C11.0435507,273.493538 14.3911233,280.221825 21.6959781,278.81136 C29,277.400073 29,280.446347 32.3484055,275.16718 C35.6959781,269.88719 34.7830795,272.592157 34.7830795,264.779088 C34.7830795,256.965196 36.3048548,253.058661 37.5217753,244.344211 C38.7395288,235.62976 45.1306521,231.422217 45.1306521,221.505376 C45.1306521,211.588535 45.434674,210.988162 45.1306521,208.283196 C44.8266302,205.579051 46.0435507,206.179424 47.565326,194.45982 C49.0871014,182.740216 48.7830795,174.025766 50,169.818222" id="Fill-63-Copy" fill="#FFFFFF"></path>
                <path d="M27.1796219,158.37932 C24.9330175,159.493418 21.8694659,157.265222 19.0101512,154.228275 C16.1508364,151.183075 13.9042319,149.012648 13.6591478,152.676791 C13.4058942,156.332682 15.3338893,162.629396 16.1426669,165.913921 C16.9432751,169.198445 21.8694659,177.690345 23.2991233,182.229261 C24.7287807,186.768177 24.5245439,192.544979 23.2991233,192.544979 C22.0737027,192.544979 21.0525189,189.243949 19.8270982,189.243949 C19.5003194,189.243949 19.3614384,189.475021 19.3532689,189.904155 C19.3287605,191.067768 20.3009275,193.692087 21.0525189,196.877581 C22.0737027,201.210182 22.2779395,207.605928 21.4609924,207.10252 C20.6440453,206.599113 19.8270982,203.685955 19.6228615,203.067011 C19.4186247,202.448068 17.5804938,202.03544 18.4382882,205.749098 C19.2960826,209.462757 18.1932041,215.652188 18.3974409,217.921646 C18.6016776,220.191104 17.9889673,224.111077 17.1720202,223.698448 C16.3550732,223.285819 15.5381261,219.778475 14.9254158,223.079505 C14.3127055,226.380535 11.9762368,233.015605 12.1477957,228.443678 C12.3275241,223.871752 12.899387,219.18429 14.2800276,216.733275 C15.6688376,214.28226 14.5496201,213.036122 14.6721622,209.553535 C14.7865348,206.070949 14.2310108,200.987363 13.9124014,198.973734 C13.5856226,196.960106 13.6509783,195.243571 13.4957584,188.47646 C13.3977247,184.185121 12.1968125,176.254397 11.3471876,168.34843 C10.8651888,163.793009 9.41102301,159.24584 8.59407593,155.408393 C6.34747147,144.886361 8.2101108,145.505304 8.2101108,145.505304 C7.81797621,140.760073 8.09165348,137.883226 7.68317994,133.542372 C7.2747064,129.20977 8.93392591,122.511155 8.60714708,114.836261 C8.28036825,107.169619 11.6576275,108.368718 11.6576275,104.036116 C11.6576275,99.7035147 8.59407593,95.9898561 8.10390768,95.9898561 C7.61373944,95.9898561 8.7983127,103.210859 8.10390768,106.561404 L6.46184406,109.226986 C5.23642344,105.760904 4.06001965,102.567158 3.91296918,100.239932 C3.84761341,99.1753499 3.5004109,97.6486236 3.33702149,95.8660675 C3.32068255,95.701016 3.07968316,95.5359645 3.07968316,95.3874181 L3.07968316,95.370913 C3.07968316,95.2471244 3.18180154,95.1150832 3.17363207,94.983042 C2.75698906,89.9159612 1.445789,78.6429443 2.26273608,69.8374472 L2.26273608,69.820942 C2.26273608,68.5335404 3.18588628,67.3616748 3.70056294,66 C3.91296918,66.8500152 4.13762962,67.9806179 4.26017168,68.9626743 C4.66047575,72.2141887 5.30749784,79.0720782 7.96257584,85.0551947 C10.6176538,91.0383113 16.9408242,98.4243656 17.1042136,104.448745 C17.2594336,110.473125 23.7459934,108.143423 24.4567373,113.086715 C25.1674813,118.03826 26.9688496,145.711618 28.1779313,148.963132 C29.3870129,152.206394 29.4262264,157.265222 27.1796219,158.37932" id="Fill-65-Copy" fill="#EAEDF4"></path>
                <path d="M18.978646,280 C12.9529746,280 9.87928587,273.855143 7.04329139,266.971086 L7,266.867846 L7.01551956,266.756346 C7.03267275,266.624199 8.80271884,253.453226 8.80271884,249.00729 C8.80271884,246.47171 9.17192089,244.674505 9.49783154,243.087909 C9.76493125,241.786257 9.99609094,240.663829 9.99609094,239.349788 C9.99609094,238.147246 9.8980727,236.56891 9.7845349,234.741145 C9.61300298,231.978437 9.39899648,228.540125 9.39899648,224.562487 C9.39899648,220.245394 11.1543398,217.601619 12.4367452,215.67144 C13.1571793,214.586179 13.7795951,213.647932 13.8784302,212.746852 C14.0654816,211.046279 14.0148389,209.614131 13.951127,207.802059 C13.9160038,206.79939 13.8759797,205.662922 13.8759797,204.342273 C13.8759797,202.635093 13.6096968,201.022894 13.3523989,199.462728 C13.0787647,197.810058 12.8214668,196.249067 12.9840137,194.936677 C13.2723507,192.605926 12.9929987,189.697856 12.3861024,183.865197 C12.3019701,183.054968 12.2178378,182.21005 12.1288045,181.322185 C11.5807192,175.825676 10.8994924,168.983741 9.10739221,159.150318 L9.91032498,159 C11.7089597,168.867286 12.392637,175.727391 12.9415391,181.240418 C13.0297555,182.125806 13.1138879,182.970724 13.1980202,183.77765 C13.8122678,189.675556 14.0940703,192.617489 13.7942978,195.039091 C13.6464536,196.231722 13.8833311,197.665522 14.1577821,199.326451 C14.4085455,200.845321 14.6927984,202.566541 14.6927984,204.342273 C14.6927984,205.648881 14.7328225,206.77709 14.7679457,207.772325 C14.8300239,209.545579 14.883934,211.076838 14.6903479,212.839355 C14.5694588,213.941134 13.8947665,214.956192 13.1147047,216.131479 C11.8233143,218.076524 10.2158152,220.4973 10.2158152,224.562487 C10.2158152,228.514522 10.4290048,231.938793 10.5997199,234.689938 C10.7140746,236.530917 10.8129096,238.121643 10.8129096,239.349788 C10.8129096,240.748899 10.5629631,241.966308 10.297497,243.255572 C9.97975457,244.803349 9.61953753,246.55678 9.61953753,249.00729 C9.61953753,253.341727 8.02429063,265.378709 7.83968961,266.756346 C10.9321652,274.248282 14.0597639,280.315502 20.771563,278.989898 C23.3976351,278.470393 25.0770143,278.540596 26.3046928,278.593455 C28.3549077,278.679351 28.9748731,278.705781 30.9507575,275.515245 C31.4285964,274.743835 31.8190358,274.140086 32.1359614,273.65114 C33.4420545,271.631762 33.4420545,271.631762 33.3530213,269.190337 C33.3203485,268.289257 33.2754235,267.05533 33.2754235,265.302724 C33.2754235,260.15558 33.8986561,256.765172 34.6860694,252.473683 C35.0920282,250.268472 35.5510803,247.769233 35.9660242,244.725712 C36.5067582,240.757159 38.0897528,237.669863 39.620471,234.684983 C41.490169,231.039364 43.4235788,227.268206 43.4235788,221.84603 C43.4235788,217.442216 43.4823898,214.845519 43.5207803,213.126776 C43.5706062,210.925694 43.589393,210.10225 43.4260293,208.613114 C43.2871701,207.35028 43.4578852,206.73249 43.7993154,205.501041 C44.2387639,203.90949 44.9755343,201.246718 45.8144071,194.633564 C46.5209553,189.058593 46.8297128,184.089848 47.0780256,180.098169 C47.355744,175.622499 47.5754682,172.08838 48.2142204,169.825355 L49,170.053309 C48.3849355,172.228787 48.1676618,175.724088 47.8932107,180.149376 C47.644081,184.153444 47.3345067,189.137055 46.6246913,194.738456 C45.7784671,201.411903 45.0318948,204.110189 44.5859118,205.722388 C44.2534666,206.922452 44.1162411,207.418831 44.2379471,208.521436 C44.4070285,210.06591 44.3866081,210.967816 44.3375989,213.146598 C44.2992085,214.860385 44.2403975,217.452127 44.2403975,221.84603 C44.2403975,227.469731 42.260429,231.330915 40.345806,235.065732 C38.7775141,238.123294 37.2966219,241.010717 36.7746747,244.838863 C36.3572804,247.901381 35.8957778,250.410531 35.4898189,252.624001 C34.7089403,256.874194 34.0922422,260.230739 34.0922422,265.302724 C34.0922422,267.040463 34.1371672,268.265305 34.1698399,269.159778 C34.2654077,271.813465 34.2400863,271.905968 32.8196387,274.102093 C32.5043466,274.588561 32.1171746,275.187355 31.6426029,275.954636 C29.5164239,279.388818 28.6571306,279.517662 26.2712033,279.418551 C25.0835489,279.367344 23.4588965,279.300444 20.929209,279.800127 C20.2455318,279.935578 19.596161,280 18.978646,280" id="Fill-67-Copy" fill="#5E5E5E"></path>
                <path d="M38.7526023,267 L38.3840146,266.261529 C38.572019,266.167466 38.7591989,266.084956 38.9447296,266.00162 C40.4322737,265.339883 41.836535,264.713627 42.5118668,257.451029 C43.0008433,252.187668 42.7938735,246.891302 42.6273082,242.636222 C42.5283584,240.103967 42.4434266,237.917431 42.5102177,236.168203 C42.6042199,233.820772 43.8048097,231.65734 45.0771382,229.366841 C46.4170822,226.952576 47.8040274,224.455801 47.8040274,221.711493 C47.8040274,219.089301 48.2319849,216.854084 48.6855044,214.48685 C49.1728317,211.943869 49.6766507,209.314251 49.6502641,206.037748 C49.6370708,203.999732 49.4771021,201.954291 49.3229055,199.976508 C48.997196,195.808064 48.660767,191.496876 49.6601591,186.952184 C50.2291199,184.379498 51.1427556,181.339802 52.1099891,178.121057 C53.6057789,173.142357 55.1526928,167.994511 55.3324514,164.707282 C55.4091375,163.344204 55.6210548,161.170871 55.8659553,158.654292 C56.6130256,150.993168 57.741877,139.415258 56.8447329,133.128763 C56.1900156,128.537864 55.0009699,126.046039 54.0452806,124.042678 C53.2487354,122.37266 52.6187555,121.052488 52.6187555,119.200946 C52.6187555,117.54248 52.2913969,113.459847 51.9129142,108.732806 C51.3975511,102.301917 50.8129232,95.0129162 50.8129232,90.9649382 C50.8129232,82.7872965 49.5842976,76.3943626 46.944814,70.8455138 C44.1420634,64.9451692 38.6487051,55.7790485 37.9981107,54.6981576 C32.3142742,51.9538496 17.4009032,45.9726444 14.8554218,50.3712932 C13.329947,53.0058618 11.2899337,54.8689548 9.31836068,56.6709899 C7.03262229,58.7576871 4.87469395,60.7296943 4.07732417,63.5754905 C3.62545381,65.1828002 3.20739127,66.4666676 2.76211755,67.6160425 C2.61864047,67.9898163 2.46032093,68.3512134 2.30447513,68.7051846 C1.91362376,69.5954757 1.54421149,70.4354353 1.54421149,71.2869464 L1.54421149,71.4074121 L1.4790696,71.5254025 C0.808685283,72.571639 0.816931092,73.7416416 0.826826064,75.2218846 L0.829299807,75.792034 C0.829299807,79.4150816 1.59616009,88.2462085 2.34735334,96.406523 L2.35477456,96.5236882 C2.36219579,96.629302 2.36879244,96.7324405 2.36879244,96.8322785 C2.36879244,96.9230403 2.38281032,97.0030758 2.39435445,97.0847614 C2.40424942,97.15077 2.41414439,97.2184289 2.42074104,97.2860877 L2.45619802,97.6714129 C2.60627175,99.2861486 2.73573096,100.681406 2.79757453,101.674835 C2.93280581,103.798662 3.99486607,106.766574 5.11794533,109.907759 L5.34635425,110.547217 C6.96912956,115.111713 8.41132164,119.533465 8.24805461,123.458502 C8.09798088,127.098876 8.17714065,131.181509 8.25382668,135.128824 C8.32886355,138.975476 8.39895293,142.60925 8.24805461,145.45257 C8.1878602,146.605246 8.10292836,147.455107 8.03448815,148.137471 C7.76072727,150.868577 7.71042783,151.360341 10.3441394,160.698909 L9.55006793,160.922513 C6.87512733,151.433776 6.92625135,150.918083 7.2140301,148.055785 C7.28164574,147.381672 7.365753,146.543363 7.42429824,145.41049 C7.57437198,142.596048 7.5042826,138.976301 7.43007031,135.143676 C7.3525597,131.184809 7.27339993,127.090625 7.42429824,123.424672 C7.5817932,119.647329 6.16433855,115.308914 4.56959899,110.824454 L4.34201465,110.186645 C3.19832088,106.987703 2.11729525,103.967809 1.97381816,101.726817 C1.91362376,100.744939 1.78416455,99.3554576 1.63573998,97.748148 L1.57884389,97.204402 C1.56070311,97.0806359 1.54421149,96.9609953 1.54421149,96.8479555 C1.54421149,96.7514179 1.53843942,96.667257 1.53184278,96.5814458 L1.52524613,96.4692311 C0.773228302,88.303141 0.00471885676,79.448911 0.00471885676,75.792034 L0.00224511391,75.2276604 C-0.00764985749,73.7168883 -0.0167202479,72.4057923 0.722104283,71.1821577 C0.751789197,70.1912035 1.14016682,69.3066881 1.54998356,68.3726662 C1.70005729,68.0310717 1.85342935,67.6828763 1.99195895,67.3190038 C2.42898685,66.193557 2.83880358,64.9344428 3.28325271,63.3527114 C4.14411522,60.2800106 6.38779999,58.2304433 8.76176854,56.0620605 C10.6879896,54.3021059 12.6801772,52.4827436 14.1421592,49.9570891 C17.6086976,43.968458 37.6179789,53.5958138 38.4681218,54.0083676 L38.5777911,54.0619996 L38.6404593,54.1667882 C38.7014783,54.2666263 44.7052521,64.2083481 47.6894106,70.4907175 C50.3833166,76.1542563 51.6375042,82.661055 51.6375042,90.9649382 C51.6375042,94.9799119 52.2204829,102.25076 52.7350214,108.665972 C53.1151533,113.411166 53.4433365,117.509476 53.4433365,119.200946 C53.4433365,120.866013 54.0081744,122.049218 54.7898772,123.687882 C55.7694793,125.740749 56.9890346,128.296108 57.6618926,133.012423 C58.57223,139.397106 57.4376066,151.034424 56.6872379,158.735153 C56.443162,161.24183 56.2312447,163.406912 56.1553832,164.753488 C55.9706771,168.13808 54.4097453,173.333782 52.8999376,178.358688 C51.9368271,181.561756 51.0281389,184.587425 50.4657747,187.130407 C49.4919446,191.554634 49.8242507,195.803113 50.1450127,199.911324 C50.3008585,201.903959 50.4616518,203.965078 50.4748451,206.031972 C50.5012316,209.389335 49.9899915,212.059384 49.4952429,214.64197 C49.0491446,216.968774 48.6286083,219.166861 48.6286083,221.711493 C48.6286083,224.670329 47.18889,227.261167 45.7978219,229.767843 C44.5749684,231.970056 43.420555,234.049327 43.333974,236.200383 C43.2688321,237.917431 43.3529394,240.089115 43.4510645,242.604043 C43.6184545,246.883051 43.8262489,252.209946 43.3331494,257.526939 C42.6132903,265.2714 40.9938133,265.992544 39.2803341,266.755768 C39.1055229,266.833328 38.9290626,266.911713 38.7526023,267" id="Fill-69-Copy" fill="#5E5E5E"></path>
                <path d="M169.309191,71 C162.835823,87.9056428 158.195658,90.1230898 158.707987,95.1117219 C159.220316,100.100354 161.651792,94.8348528 164.190908,95.1117219 C166.730023,95.388591 168.774333,99.4343716 161.911294,105.310149 C155.048256,111.185926 152.822879,108.783068 150.041784,110.539067 C147.260689,112.295065 144.096599,115.903509 151.988467,114.791044 C159.88117,113.679411 173.454549,115.62082 174.820482,107.028733 C176.186414,98.4374766 169.309191,71 169.309191,71" id="Fill-71-Copy" fill="#EAEDF4"></path>
                <path d="M40.8220183,19 C41.0855142,21.5973024 41.2890874,22.9862695 42.0795751,24.3092523 C42.8692419,25.6314104 46,27.8789967 46,27.8789967 L42.3578465,36 L29,32.888021 L29,21.4645092 L37.5,21.0908738 L40.8220183,19 Z" id="Fill-73-Copy" fill="#F4E4D3"></path>
                <path d="M42.8824252,20.7616484 C43.0522294,15.2970923 42.4467326,12.5643988 37.6044149,8.01129446 C32.7620973,3.45735923 28.524448,2.54673836 22.7742993,6.49331605 C17.0241506,10.4398937 10.0630084,15.6003556 9.15434902,17.7256916 C8.24651799,19.8510275 11.5755079,27.7441829 13.0888357,34.1193599 C14.6021635,40.4945369 14.1606727,50.3975389 12.4021642,52.2644778 C10.6436558,54.1322476 15.5108228,51.2840648 22.1688026,52.2644778 C28.8276106,53.2457217 35.3248976,60.8356137 40.0255738,63 C39.3099114,57.9591817 37.6044149,57.4955627 38.2099117,53.8530792 C38.8154085,50.2097648 37.6044149,49.9696468 41.2365673,47.8127382 C44.8687198,45.6558296 45.171054,41.491567 45.7765508,38.5644527 C46.3812193,35.6373383 48.1977096,29.3585409 45.7765508,29.0070878 C43.3553919,28.6548038 39.7224112,32.9079682 35.4855903,30.1279158 C31.2479411,27.3470326 32.1723384,26.833562 34.8809219,22.8869843 C36.0314486,21.2094811 42.8824252,20.7616484 42.8824252,20.7616484" id="Fill-75-Copy" fill="#FFFFFF"></path>
                <path d="M31.4549348,50.2796064 C34.1544506,49.1653069 33.3445148,47.042754 28.8048251,43.7797979 C24.2651353,40.5168419 24.7057403,41.0609398 20.1158345,38.3999991 C15.5259287,35.7390584 14.715993,21.2115623 15.4206371,15.6474064 C16.0734453,10.4927516 21.6360839,9.15493961 29.5345772,4.01496806 C27.3590898,3.88118686 25.0726412,4.64063989 22.4678879,6.43608146 C16.845314,10.3108418 10.0386141,15.3782126 9.15092457,17.4640572 C8.26323501,19.5507176 11.5183667,27.3002383 12.9981193,33.5594038 C14.4778719,39.819385 14.0453662,49.5413626 12.3258726,51.3751439 C11.9314339,51.7952495 11.892557,51.9649232 12.1233887,52 C12.8215533,51.8760077 13.5245775,51.7618042 14.2251719,51.6614683 C16.0199895,51.3188579 18.7397537,50.9109884 21.8766348,51.3751439 C29.5410566,52.356478 28.755419,51.3939059 31.4549348,50.2796064" id="Fill-77-Copy" fill="#EAEDF4"></path>
                <path d="M39.9133992,66 C38.787017,66 37.4601488,64.4760237 37.4451747,64.4586964 C33.7981588,60.0823185 26.5523768,53.3370527 22.5800909,52.7586513 C18.3632288,52.1447702 16.6445393,52.4096302 15.2627662,52.6216832 C14.4599901,52.7454495 13.7661919,52.8510635 12.7928779,52.7611266 C12.3303457,52.7173958 12.004244,52.5399974 11.8220595,52.2305816 C11.4102728,51.5317143 11.9069126,50.4252431 12.5948875,48.8938409 C13.0998461,47.7692174 13.672188,46.494424 13.9916347,45.1560973 C14.8401649,41.6023529 13.8901438,37.6467806 13.1272986,34.4684608 C12.5807453,32.1919852 11.8220595,29.7876176 11.0883305,27.4632857 C9.66413088,22.952415 8.53941247,19.3887693 9.18828847,17.887071 C10.2256582,15.4860039 18.2958455,9.75644724 23.0143387,6.55419933 C28.6603919,2.7232184 33.1259898,3.17207768 38.4276395,8.10127865 C43.244296,12.5807952 44.0379213,15.3952419 43.8598964,21.0785925 L43.847418,21.453192 L43.4705707,21.4771201 C40.888377,21.6446172 36.508464,22.317081 35.7497782,23.4095253 C35.5218397,23.7387438 35.3055477,24.043209 35.1050616,24.3278716 C34.0352481,25.8411214 33.3888678,26.7545171 33.5294576,27.4781376 C33.6542414,28.1225477 34.414591,28.8354419 36.2422584,30.0219486 C38.787017,31.6721665 41.0980139,30.638305 43.1369819,29.7257345 C44.3623593,29.177037 45.4221901,28.70755 46.4096463,28.8453432 C46.8705146,28.9113519 47.2398748,29.1399071 47.5060804,29.525233 C48.4660841,30.9130663 47.8687854,33.9618439 47.0535309,37.5081622 C46.9412255,37.9933263 46.8380708,38.4413605 46.7573773,38.8283366 C46.6816751,39.1905594 46.6109642,39.5709347 46.5377577,39.9645116 C46.0111699,42.7938103 45.3556387,46.3153754 42.0031127,48.2840854 C39.4866385,49.7610304 39.4675049,50.1397554 39.3876433,51.7346911 C39.358527,52.3163929 39.3219238,53.0400134 39.1613686,53.9946645 C38.8585598,55.7942272 39.0382485,56.1382976 39.3942984,56.8239632 C39.7420294,57.4906512 40.2170399,58.404872 40.5614433,60.8034637 L39.7378699,60.9198041 C39.4134319,58.6598306 38.9758566,57.8173944 38.655578,57.2026882 C38.2196665,56.3652026 38.0083658,55.8371328 38.3402908,53.8593467 C38.493359,52.9517268 38.5282985,52.2536846 38.5565828,51.6934356 C38.6489229,49.8583933 38.81031,49.1999563 41.5788476,47.5736665 C44.6069357,45.7963818 45.2233679,42.4794438 45.7191757,39.8151669 C45.794046,39.4149891 45.8655887,39.0288381 45.9429547,38.6608395 C46.025312,38.2689127 46.1292986,37.8159279 46.241604,37.3249881 C46.8031314,34.8834906 47.6516615,31.1936033 46.8206011,29.9922447 C46.6874983,29.7999943 46.5186242,29.6943803 46.2906857,29.6622011 C45.5419826,29.5549369 44.5861383,29.9823434 43.4797216,30.4774087 C41.3559005,31.4287594 38.7146424,32.6119656 35.7872133,30.7109146 C33.9919897,29.5466858 32.9130254,28.669595 32.7125393,27.6340832 C32.5053982,26.5663922 33.2274807,25.5457324 34.4237418,23.8542591 C34.623396,23.5720718 34.8380242,23.2684317 35.0651308,22.9416885 C36.175707,21.3409771 41.4615508,20.8071316 43.0388186,20.68089 C43.1644344,15.8234735 42.6278638,13.1385689 37.8586252,8.7044333 C32.8373232,4.03431655 28.8068049,3.62258717 23.483526,7.23573934 C15.6986777,12.5197372 10.6399406,16.622179 9.95279751,18.212989 C9.42537778,19.4333252 10.6740481,23.3897227 11.8819558,27.2165781 C12.6198443,29.5549369 13.3835214,31.9733313 13.9267471,34.234955 C14.7203724,37.5403415 15.6953502,41.6023529 14.8010659,45.3466974 C14.4641495,46.7601091 13.8485492,48.12979 13.3552371,49.2296602 C12.8810585,50.2849746 12.343656,51.4805575 12.5399826,51.8147266 C12.5890643,51.8964124 12.7471238,51.9277666 12.8710757,51.9393181 C13.7404032,52.0226541 14.3568354,51.9252912 15.1354866,51.8064755 C16.5721647,51.5861714 18.3599012,51.3105851 22.7015472,51.9417934 C27.3393469,52.6175577 35.0692903,60.3125239 38.0865637,63.933102 C38.5748845,64.5189294 39.6496893,65.3085587 40.0132263,65.1575637 C40.0581485,65.136936 40.4458103,64.9092059 40.1637988,63.0733385 L40.9857084,62.9495721 C41.151255,64.0255142 41.2652242,65.5049346 40.3534702,65.9108882 C40.2128804,65.9727714 40.0648036,66 39.9133992,66" id="Fill-79-Copy" fill="#5E5E5E"></path>
                <path d="M164.441299,150 C163.181827,152.508639 162.29345,155.867706 161.659389,156.971507 C161.026192,158.074472 158.778,159.721811 158.316943,161.192709 C157.855887,162.663608 157.728728,164.406275 159.124009,163.915418 C160.518424,163.425398 160.899034,163.193767 161.913705,161.722868 C162.927511,160.25197 165.715477,159.048659 165.715477,159.048659 L168,150 L164.441299,150 Z" id="Fill-81-Copy" fill="#A6BBFE"></path>
                <path d="M176,151.927625 C175.255585,156.074767 174.237937,160.650332 172.749954,163.76028 C171.261971,166.870228 170.257011,167.962097 169.264741,168.440299 C168.27247,168.919318 168.142197,169.643966 166.90207,169.763925 C165.661944,169.883067 165.284661,169.169844 165.284661,169.169844 C165.284661,169.169844 165.641641,168.600244 164.036921,169.782694 C162.433046,170.965959 162.447426,171.205876 161.510141,170.846817 C160.572009,170.487757 161.13455,169.29225 161.561742,168.33503 C161.988089,167.378625 164.5394,160.201507 164.5394,160.201507 L165.779527,148 L176,151.927625 Z" id="Fill-83-Copy" fill="#A6BBFE"></path>
                <path d="M164.435384,158 C163.554195,160.519681 162.792576,162.919844 160.759862,165.439525 C158.728013,167.960025 157.365938,169.039771 158.300849,169.519476 L159.235759,170 C159.235759,170 160.375153,169.638993 161.900989,168.559247 C163.427691,167.479501 163.808067,165.920049 165.713412,163.999591 C167.618758,162.079951 168,159.91964 168,159.91964 L164.435384,158 Z" id="Fill-85-Copy" fill="#A6BBFE"></path>
                <path d="M166.894837,77.3109595 C165.905562,70.6889805 165.510014,68.4822033 168.27966,65.873445 C171.049305,63.2646868 174.809038,61.6600574 177.776863,62.0612148 C178.889594,62.2119577 180.141214,62.7852749 181.480553,64.0892422 C183.711701,66.2622464 186.184889,70.463278 188.658077,78.1132742 C192.615177,90.3539271 194,92.5607043 194,95.9717772 C194,99.3828501 193.407085,97.7782208 193.010725,104.199209 C192.615177,110.620198 189.647352,124.46548 186.482159,133.896384 C183.316154,143.326465 184.700976,143.527455 183.118786,145.735056 C181.535783,147.941833 179.952781,151.955054 177.776863,152.757369 C175.600133,153.560507 166.696657,152.356211 165.114467,149.346296 C163.531464,146.33638 163.728832,142.122993 165.114467,137.307457 C166.499289,132.491098 166.696657,124.090682 167.685932,121.869902 C168.675207,119.649121 166.103742,112.682822 169.071567,110.218217 C172.03858,107.754435 168.873387,103.797228 168.873387,99.5838407 C168.873387,95.3696293 169.071567,93.1628522 169.071567,88.9486408 C169.071567,84.7352532 166.894837,77.3109595 166.894837,77.3109595" id="Fill-87-Copy" fill="#FFFFFF"></path>
                <path d="M96.3974364,107.40631 C94.7615332,109.306741 93.7042718,112.6025 91.7410226,112.985943 C89.7777734,113.369385 82,105.781084 82,105.781084 L86.2935227,100.952394 L94.1820647,97.0944767 C94.1820647,97.0944767 100.652107,95.8417861 99.9461643,102.459315 C99.5303688,106.361702 96.3974364,107.40631 96.3974364,107.40631" id="Fill-89-Copy" fill="#778DC6"></path>
                <path d="M76.6786156,107.96769 C76.5257864,111.318164 77.552999,111.904436 80.2179056,114.391653 C82.0201208,116.073754 83.8498953,117 86.4438158,117 C87.7399409,117 89.2866056,116.351547 90.0874973,115.929205 C90.888389,115.506863 90.4866905,116.262718 91.9364799,115.381694 C93.6201063,114.359351 92.2371274,113.85787 93.6201063,114.359351 C94.8410695,114.801882 97.1744287,113.915206 95.292876,110.817491 C94.2180609,109.047368 90.6553872,106.368765 89.0369011,104.459746 C87.7583138,102.94965 83.6052016,98.9353794 80.6454933,99.00079 C79.2641847,99.0314764 79.1222123,99.00079 79.1222123,99.00079 L75,101.885315 L76.6786156,107.96769 Z" id="Fill-91-Copy" fill="#88A4F8"></path>
                <path d="M74.9601179,101.512304 L76.5891292,107.436466 L76.5857721,107.5 C76.4556862,110.379405 77.1740962,111.042442 79.3083443,113.012004 L80.0150045,113.668524 C81.8983128,115.432822 83.6825879,116.185458 85.9796532,116.185458 C87.095035,116.185458 88.4991235,115.652748 89.4416169,115.154248 C89.8763556,114.923733 90.109671,114.947355 90.3287189,114.994598 C90.4269127,115.019035 90.5687483,115.047544 91.2762478,114.615022 C91.9686406,114.193089 92.0223534,113.921847 92.0475314,113.790706 C92.0676737,113.688073 92.1054406,113.495842 92.3093817,113.385064 C92.5443756,113.256366 92.7290137,113.324788 93.3399978,113.547158 C93.8091463,113.719026 94.5216814,113.635128 94.8993502,113.198534 C95.3575883,112.669082 95.219949,111.733173 94.5116102,110.561048 C93.9207684,109.585227 92.4805915,108.26404 91.089092,106.986024 C90.0475654,106.028938 88.9699506,105.040084 88.2624511,104.201106 C86.7652042,102.427849 82.8290565,98.780331 80.162715,98.8446798 C79.4829112,98.860156 79.0095663,98.8617851 78.7468767,98.8520106 L74.9601179,101.512304 Z M85.9796532,117 C83.4442369,117 81.4862342,116.178942 79.4325554,114.25418 L78.7300915,113.602547 C76.595004,111.631356 75.6130653,110.725585 75.7448297,107.52688 L74,101.1816 L78.5295074,98 L78.7133062,98.039098 C78.7040743,98.039098 78.7854829,98.0439853 79.1085995,98.0439853 C79.3276474,98.0439853 79.6566388,98.0407271 80.1434119,98.030138 C83.3116332,97.932393 87.6539847,102.19489 88.9112021,103.685501 C89.585131,104.482937 90.6434428,105.454686 91.6656663,106.393852 C93.0999683,107.710966 94.5837869,109.07288 95.2350557,110.149704 C96.4519884,112.160808 95.9501086,113.251479 95.5413871,113.722284 C94.901868,114.461073 93.7772543,114.577553 93.0454162,114.309569 C92.9530971,114.276173 92.866653,114.24522 92.7911192,114.21834 C92.6618726,114.542528 92.3882725,114.900111 91.7235755,115.305753 C90.7978674,115.870231 90.4739115,115.860456 90.1474378,115.789591 C90.0727434,115.774929 90.0383335,115.766784 89.8436243,115.869416 C89.4860979,116.05839 87.622932,117 85.9796532,117 Z" id="Fill-93-Copy" fill="#5E5E5E"></path>
                <path d="M96,97.3229822 C91.9157882,96.629065 89.1594482,97.1091996 87.3210499,98.2298058 C85.48349,99.350412 84.2578911,100.631355 82.5737405,103.032028 C80.8887517,105.433578 79.3571723,105.433578 80.2759523,106.393847 C81.1947323,107.354116 81.9609411,107.034319 83.64593,106.393847 C85.3300805,105.753375 86.2287412,103.032028 88.0000753,102.871691 C89.7714094,102.712231 90.9970082,103.966889 90.9970082,103.966889 L96,97.3229822 Z" id="Fill-95-Copy" fill="#778DC6"></path>
                <path d="M81.9095516,106 C81.3757209,106 80.8956871,105.815288 80.3933069,105.324875 C80.2161909,105.152262 79.9827952,104.882858 80.0010034,104.538439 C80.0225221,104.128686 80.3577182,103.864121 80.8203714,103.497117 C81.2929565,103.123661 81.9410021,102.610663 82.6204983,101.70727 C84.3635176,99.3915184 85.6223649,98.2058151 87.4332511,97.1765923 C89.4063556,96.0554169 92.1938624,95.7343898 95.719628,96.2183503 C96.9842688,96.1272044 99.9265451,96.2086711 101,98.7776951 L100.234429,99.0817837 C99.3529874,96.974942 96.7963935,96.9442912 95.7394915,97.0257579 L95.693971,97.0297909 L95.6476229,97.0233381 C92.2898691,96.5547029 89.6654084,96.8418529 87.8503839,97.8726889 C86.1280557,98.852709 84.9768022,99.9400071 83.2884074,102.184778 C82.5460102,103.17125 81.8209937,103.744744 81.3417875,104.123846 C81.1307381,104.290813 80.8692025,104.498109 80.8278202,104.586835 C80.8360967,104.587642 80.8658919,104.64491 80.9784515,104.754608 C81.6521542,105.411988 82.1123245,105.285352 83.7667859,104.698146 L83.8718968,104.661042 C84.5298742,104.427935 85.0719813,103.821371 85.6471942,103.179316 C86.3895914,102.349324 87.1584731,101.490294 88.2766209,101.396728 C90.1893073,101.231375 91.5052621,102.466281 91.5607143,102.51871 L90.9821908,103.09543 C90.9706038,103.085751 89.8731471,102.067014 88.3477983,102.200103 C87.5623637,102.266244 86.9350091,102.96718 86.2704106,103.709253 C85.6521601,104.40051 85.0132185,105.114352 84.1541235,105.418441 L84.0498403,105.455544 C83.1932283,105.76044 82.5170427,106 81.9095516,106" id="Fill-97-Copy" fill="#5E5E5E"></path>
                <path d="M195,95.9708425 C195,92.5602168 193.611871,90.3529053 189.645322,78.1146809 C188.700906,75.2015239 187.756489,72.7907773 186.825914,70.7992552 L183.802153,70.0135182 C180.816657,66.6177178 181.359697,66 178.645314,66 C175.931745,66 174.622589,67.8160902 174.870091,69.9105653 C175.117593,72.0050403 178.568784,78.8518241 179.96424,83.2442092 C181.359697,87.637418 179.654048,90.0992292 179.96424,93.6679907 C180.273618,97.2375757 181.359697,99.2669845 182.173849,100.172147 C182.988001,101.076486 184.887418,100.911761 186.515722,100.169676 C188.144026,99.4275911 190.867364,100.55019 190.591367,101.773271 C190.315369,102.995529 188.687065,104.531587 185.15853,105.136127 C181.630809,105.739843 181.825392,105.080121 179.96424,105.135303 C178.103089,105.190486 177.560049,106.784198 178.374201,107.497456 C179.188353,108.210714 182.444961,110.123992 184.887418,109.579577 C187.329874,109.034338 189.278954,107.378854 189.254529,109.579577 C189.22929,111.779476 185.70157,113.647454 183.802153,112.987732 C181.901922,112.328833 179.654048,112.882308 179.96424,114.527084 C180.273618,116.171861 184.887418,118.202917 186.515722,117.187389 C188.144026,116.171861 190.062168,122.891806 182.725844,121.865571 C175.388706,120.839336 183.820064,127.977683 182.725844,132.644335 C181.630809,137.31181 178.846409,143.626533 176.710889,145.27378 C174.574554,146.921028 172.935666,147.364961 174.840781,148.78983 C176.745897,150.215522 178.804074,151.326591 181.43867,146.37826 C184.073266,141.429929 187.463395,133.889654 187.463395,133.889654 C190.636959,124.459986 193.611871,110.616519 194.008363,104.196372 C194.404855,97.7762256 195,99.3814682 195,95.9708425" id="Fill-99-Copy" fill="#EAEDF4"></path>
                <g id="Group-103-Copy" transform="translate(164.000000, 61.000000)">
                    <mask id="mask-6" fill="white">
                        <use xlink:href="#path-5"></use>
                    </mask>
                    <g id="Clip-102"></g>
                    <path d="M10.9286648,92.4141 C9.86087682,92.4141 8.72179497,92.2651354 7.55840838,91.9606221 C4.03260168,91.0388522 1.36637239,89.0060204 0.601583432,86.6571531 C-0.514814004,83.2276752 0.326129783,79.767746 1.13790789,76.420569 C1.35016923,75.5481796 1.56891183,74.6453389 1.74390592,73.7754186 C2.13521213,71.8158345 2.360436,69.7871177 2.57755828,67.8250646 C2.79306026,65.8794717 3.01585365,63.866392 3.40310907,61.905985 C3.66154941,60.5982239 3.46468107,59.1925248 3.27510414,57.8329142 C3.00208097,55.8807372 2.72014606,53.8618965 3.7903645,52.1088876 C3.97021953,51.8150735 4.33722101,51.5163212 4.7269069,51.2002858 C5.03557702,50.9492681 5.67803215,50.4266575 5.68532357,50.2241973 C5.5791929,50.0135071 5.37584329,49.7880027 5.16115148,49.5493301 C4.53327919,48.8530646 3.67451193,47.8991973 4.24567318,45.8976398 C4.54624172,44.8458345 5.73636351,44.5865867 6.52383688,44.4154009 C6.65994339,44.3857726 6.82764606,44.3487372 6.95565099,44.3133478 C6.64455039,43.865631 6.23055976,43.5668788 5.79550503,43.2541354 C5.02990592,42.7027195 4.16222692,42.0780558 4.16222692,40.5941708 C4.16222692,39.4682947 4.30238422,39.1102858 4.46522594,38.6963124 C4.67586696,38.1613566 4.96428314,37.4288788 5.03557702,33.8668965 C5.15548037,27.8967903 3.86651933,20.4403301 3.8535568,20.3654363 L4.65075207,20.2222327 C4.66452475,20.2971265 5.96644832,27.8317726 5.84573481,33.8833566 C5.7712003,37.5959496 5.46415049,38.3753389 5.21786252,39.0024717 C5.07527475,39.3645956 4.97238471,39.6263124 4.97238471,40.5941708 C4.97238471,41.6525602 5.51357012,42.0426664 6.26377623,42.5817372 C6.78146706,42.9553832 7.36883146,43.3784097 7.77715099,44.0911354 C7.92216923,44.3429761 7.86869882,44.5520204 7.82414014,44.6540735 C7.67021016,45.0063212 7.26027032,45.0968522 6.69315986,45.2194805 C6.02315937,45.3659761 5.189507,45.5478611 5.02423481,46.1280823 C4.57945819,47.684392 5.15223974,48.3205779 5.75904793,48.9937991 C6.00290542,49.264569 6.2548645,49.545215 6.4160859,49.8768876 C6.76445375,50.5978434 5.95024517,51.2587195 5.23244536,51.8422327 C4.92944635,52.0891354 4.58512929,52.3689584 4.47899862,52.5434363 C3.56352032,54.0421354 3.81304892,55.8272416 4.07716036,57.7176929 C4.27645917,59.1456133 4.48223925,60.6212681 4.19706371,62.0681177 C3.81790986,63.9939584 3.59673679,65.9889319 3.38285513,67.9164186 C3.16411252,69.8965779 2.93645819,71.9434009 2.53705039,73.9391973 C2.35962584,74.8264009 2.13845276,75.7366487 1.9245711,76.6180912 C1.13952821,79.8508699 0.327750099,83.1947549 1.37123333,86.3979053 C2.03961351,88.4537814 4.54867219,90.3236575 7.76094783,91.1639496 C10.9602609,92.0009496 13.9238181,91.6009673 15.4963344,90.1203743 C18.7215726,87.0834717 19.6402915,83.3075071 20.6124809,79.3093301 C20.7728921,78.651746 20.9341135,77.9892239 21.1066771,77.3234097 C21.8771372,74.3572858 22.7350943,71.3829319 23.5646959,68.5073389 C25.162327,62.9684894 26.8150489,57.2403478 27.8812166,51.4060381 L28.1931273,49.7172239 C29.0729587,44.9684628 30.0718832,39.585985 30.0232738,34.8150027 C29.9843862,30.9970646 28.4159207,27.0145248 26.8993053,23.1628434 C26.2981682,21.6361619 25.7310578,20.1942504 25.2619764,18.7786752 C25.0813112,18.2305513 24.8884937,17.6215248 24.6827136,16.9680558 C22.9554572,11.4917549 20.0648142,2.32590531 14.179828,1.33582566 L14.3118837,0.524338938 C20.6853951,1.59589646 23.6708265,11.0613212 25.4539838,16.7170381 C25.6589537,17.366392 25.850151,17.9721265 26.0308162,18.5169584 C26.4909858,19.9103124 27.0548556,21.3423478 27.6519419,22.8566841 C29.1961027,26.7791442 30.7929237,30.8349319 30.8334316,34.8067726 C30.882041,39.6584097 29.8766352,45.0828611 28.9887023,49.8694805 L28.6776017,51.5550027 C27.6041426,57.4312858 25.9457496,63.1800027 24.3416372,68.7386044 C23.5136559,71.6100823 22.6573191,74.5778522 21.8900997,77.5341 C21.7183463,78.1949761 21.557935,78.8525602 21.3991441,79.5068522 C20.3969789,83.6276575 19.4499044,87.5204894 16.0472417,90.7236398 C14.8700824,91.8330558 13.039936,92.4141 10.9286648,92.4141" id="Fill-101" fill="#5E5E5E" mask="url(#mask-6)"></path>
                </g>
                <path d="M7.75843762,133 L7,133 C7,133 7.01441031,121.657649 8.24762988,111 L9,111.047582 C7.77284793,121.656842 7.75843762,133 7.75843762,133" id="Fill-104-Copy" fill="#5E5E5E"></path>
                <path d="M37,110 C40.1395349,108.404483 41,108.793816 41,106.867905 C41,104.942825 39.7397138,102 39.7397138,102" id="Fill-106-Copy" fill="#FFFFFF"></path>
                <path d="M37.3683807,110 L37,109.316179 C37.7666922,108.889669 38.3699156,108.615205 38.8549501,108.393762 C40.0491174,107.850292 40.2325403,107.766862 40.2325403,106.716569 C40.2325403,105.002729 39.1895625,102.315789 39.1780507,102.287719 L39.8917882,102 C39.9370683,102.116179 41,104.854581 41,106.716569 C41,108.272125 40.4259401,108.533333 39.1680737,109.106433 C38.696086,109.320858 38.1082118,109.589084 37.3683807,110" id="Fill-108-Copy" fill="#A6BBFE"></path>
                <path d="M158.073185,166 C157.74837,166 157.529601,165.872909 157.388486,165.740833 C156.762238,165.151893 157.008562,163.787944 157.325027,162.748784 C157.719146,161.452949 158.807148,159.539931 159.526916,158.27317 L159.835865,157.727424 C160.111415,157.233179 160.588198,156.456509 161.140967,155.5569 C161.827335,154.438828 162.605553,153.172066 163.273552,152 L164,152.411178 C163.325322,153.592382 162.543764,154.866619 161.85322,155.988845 C161.308802,156.877655 160.837863,157.643527 160.565653,158.131126 L160.254199,158.681856 C159.594551,159.841462 158.491519,161.782722 158.12412,162.988845 C157.724991,164.300463 157.809325,164.992405 157.962965,165.137771 C158.018075,165.188442 158.166704,165.178474 158.361259,165.107868 C159.271407,164.778094 159.703101,164.074522 160.299289,163.100154 C160.479649,162.805269 160.671698,162.492109 160.891303,162.163997 C161.95843,160.571615 163.503176,160.300819 163.568306,160.29002 L163.704411,161.109054 C163.655981,161.118192 162.445234,161.343301 161.586856,162.625015 C161.373096,162.943159 161.186892,163.247182 161.013212,163.531269 C160.379449,164.565444 159.832525,165.460069 158.646828,165.88786 C158.426389,165.967604 158.236844,166 158.073185,166" id="Fill-110-Copy" fill="#5E5E5E"></path>
                <path d="M161.385859,173 C161.182227,173 161.003529,172.977495 160.853922,172.938111 C160.496527,172.844875 160.237207,172.646347 160.123339,172.378696 C159.792541,171.596641 160.196481,171.143322 160.521461,170.780025 C160.702652,170.576674 160.890493,170.367697 161.022646,170.070308 L161.785643,170.387791 C161.60279,170.799315 161.351782,171.079826 161.150643,171.305681 C160.83065,171.664157 160.760002,171.760607 160.892986,172.074073 C160.897973,172.083718 160.948673,172.13355 161.089969,172.167308 C161.607776,172.287872 162.576899,172.079699 163.584255,171.33542 C164.928228,170.341173 165.101107,170.215787 165.396166,170.534879 L165.652992,170.810567 L165.42027,171.062947 C165.332999,171.332205 165.300584,171.676213 165.387023,171.782309 C165.419438,171.8233 165.52167,171.840179 165.661304,171.826516 C166.521546,171.743729 167.439968,171.016329 168.178031,170.432802 C168.370027,170.280892 168.551218,170.137823 168.720773,170.013241 C169.777998,169.234401 170.633253,168.45958 172.019614,165.554 C173.213148,163.053513 174.21718,159.381954 175.180484,154 L176,154.136639 C175.024228,159.589323 173.999418,163.325183 172.7743,165.891577 C171.310642,168.958712 170.339857,169.830788 169.224451,170.652227 C169.061545,170.772791 168.887835,170.909429 168.704981,171.054909 C167.879648,171.70756 166.854006,172.51855 165.744419,172.625449 C165.183391,172.686535 164.881683,172.464698 164.728751,172.274208 C164.586624,172.095774 164.525119,171.879563 164.508496,171.666568 C164.38881,171.75257 164.250008,171.854647 164.088764,171.974407 C163.056474,172.737975 162.07904,173 161.385859,173" id="Fill-112-Copy" fill="#5E5E5E"></path>
                <path d="M158.894884,172 C158.42329,172 157.998533,171.927278 157.683599,171.785139 C157.137713,171.537222 157.023852,171.144687 157.004471,170.932305 C156.936639,170.195166 157.648068,169.629915 158.631631,168.845672 C159.490029,168.162248 160.558383,167.311893 161.46281,166.097101 C162.827525,164.264996 162.997105,163.182425 163.232094,161.684182 C163.312039,161.175952 163.398444,160.628056 163.537338,160 L164.324674,160.181806 C164.189817,160.791681 164.106642,161.322223 164.02912,161.815577 C163.785248,163.371669 163.59225,164.60051 162.105599,166.597893 C161.137378,167.897803 160.022995,168.784519 159.128259,169.498519 C158.466089,170.024929 157.782116,170.570346 157.807957,170.854624 C157.815225,170.934784 157.965424,171.009159 158.011453,171.029819 C158.728534,171.355416 160.367808,171.156256 161.327146,170.419944 C161.82781,170.036499 162.05957,169.8737 162.23884,169.748089 C162.557004,169.524137 162.702359,169.422492 164.074341,168.251498 C164.79869,167.632532 165.554533,166.434268 166.260308,164.786447 L167,165.117003 C166.23366,166.907789 165.422906,168.17547 164.591157,168.885338 C163.190911,170.08195 163.035058,170.191034 162.695898,170.42986 C162.522281,170.551339 162.296982,170.70918 161.81166,171.081881 C161.001714,171.701673 159.8518,172 158.894884,172" id="Fill-114-Copy" fill="#5E5E5E"></path>
                <path d="M136.466278,24 C136.257747,23.694461 135.8035,23.1624869 135.10864,23.0220774 C134.281808,22.8589255 133.651841,23.3523364 133.41852,23.5728387 L133,22.7640008 C133.304776,22.4742826 134.127233,21.8256302 135.216551,22.0441549 C136.130879,22.2300491 136.726577,22.9271527 137,23.3256388 L136.466278,24 Z" id="Fill-116-Copy" fill="#5E5E5E"></path>
                <path d="M39.4662778,27 C39.257747,26.6944141 38.8034998,26.1623585 38.1086402,26.0219275 C37.28035,25.8577616 36.651841,26.3522371 36.4185199,26.5727732 L36,25.7638113 C36.3047758,25.4740486 37.1286912,24.8262858 38.2165512,25.043855 C39.1308786,25.2297778 39.7265767,25.9269882 40,26.3255354 L39.4662778,27 Z" id="Fill-118-Copy" fill="#5E5E5E"></path>
                <path d="M7.3214662,76.7533439 C8.77551168,87.4425731 13.076303,89.9930001 13.076303,96.0112503 C13.076303,102.0295 16.198273,107.873989 19.74054,110.016776 C24.2286827,112.732729 23.1999082,114.065177 27.3771802,116.17173 C31.5536233,118.278282 30.6450521,121 37.3092891,121 C43.9726971,121 46.0932492,120.685417 53.6660573,116.773719 C61.2388655,112.862021 64.8731502,113.146134 70.628816,110.016776 C76.3836528,106.887417 76.9896433,109.639606 78.5042049,106.887417 C80.0187665,104.136053 80.9273377,98.1178025 78.5042049,96.61324 C76.0810721,95.1086775 66.3877118,94.2061046 60.632875,96.0112503 C54.8772092,97.8163959 42.5891156,100.779404 40.1751017,100.779404 C38.1822138,97.9654522 38.8238507,87.2852817 34.5827466,83.3735838 C30.3424714,79.4618859 27.3771802,77.6559167 27.3771802,75.5493644 C27.3771802,73.4436357 24.2842249,59 17.0148264,59 C9.74459901,59 5.80690457,65.6202399 7.3214662,76.7533439" id="Fill-120-Copy" fill="#FFFFFF"></path>
                <path d="M134.481433,55 C133.979423,54.1236087 133.867441,52.9324351 134.157576,51.5561414 C134.256833,51.0835774 134.468708,50.5516501 134.693308,49.9884788 C135.073156,49.0339777 135.503905,47.9529389 135.320662,47.2335481 L135.927655,47 C136.18725,48.0162078 135.697329,49.2464362 135.264035,50.3313806 C135.054705,50.8578403 134.856191,51.3553993 134.772841,51.7514157 C134.604868,52.5520406 134.508156,53.6869752 135.001895,54.5516501 L134.481433,55 Z" id="Fill-122-Copy" fill="#5E5E5E"></path>
                <path d="M164.638172,287 L164,286.478382 C165.11807,285.271345 166.925942,282.6394 166.944562,282.612365 L169.275497,279 L170,279.412683 L167.662294,283.033794 C167.581041,283.153066 165.796868,285.75082 164.638172,287" id="Fill-124-Copy" fill="#5E5E5E"></path>
                <path d="M136.431545,28 C135.789635,28 135.159058,27.5363276 134.280783,26.8373844 C133.529595,26.2406209 132.500758,25.4231836 131,24.5834214 L131.377213,23.8235139 C132.935443,24.6959049 133.993421,25.5365258 134.765656,26.1504624 C136.373264,27.4281374 136.581297,27.5929987 137.920971,25.9624174 L140.18344,23.2112946 C140.207724,22.5166446 140.186678,19.1807794 137.887782,15.4714003 L138.564499,15 C141.301318,19.4151915 140.997767,23.2602378 140.983197,23.4225231 L140.971055,23.5599075 L138.531311,26.5274108 C137.669225,27.5758256 137.045124,28 136.431545,28" id="Fill-126-Copy" fill="#5E5E5E"></path>
                <path d="M17.0011112,99.1336997 C14.9687263,90.4100901 15.5784418,88.9597465 15.1719648,86.2662512 C14.7654878,83.5727559 11.3104336,77.3984359 12.1233875,76.2381611 C12.9363415,75.0778862 16.7978727,78.3929573 18.0173036,81.0864526 C19.2367346,83.7799478 23.0982658,86.2289566 23.9112198,91.1162002 C24.7241737,96.0042726 25.8866979,100.745653 27.2305108,101.482428 C28.5751366,102.220031 30.6359749,101.066386 31.4310438,102.09986 C32.1082345,102.980011 31.7017575,103.601587 31.0245669,104.084758 C30.3473762,104.56793 28.2467032,104.706334 27.9759895,104.706334 C27.7052759,104.706334 26.1468432,104.525663 26.2826065,105.479575 C26.4175568,106.432658 29.4929616,107.692385 31.7489088,105.957774 C34.005669,104.223163 35.4145182,103.649655 35.8348154,104.29195 C36.3762427,105.120718 35.7665272,106.140103 34.5470963,107.218329 C33.3276654,108.297385 32.2439978,108.988577 31.5668071,109.333345 C30.8888035,109.678941 30.5847588,110.040284 30.7538532,110.507709 C31.2278053,111.819648 33.5357816,111.742573 34.6828596,110.690866 C36.105529,109.386386 37.8672003,109.88779 38.0704387,111.261059 C38.2118927,112.219943 37.5281985,112.621067 35.9022906,113.381047 C34.2763827,114.141027 32.1765226,113.366958 32.3797611,114.651548 C32.5025171,115.428932 32.6504748,116.033103 35.2250999,115.894699 C37.7989121,115.756295 40.2304574,114.325013 41.3897297,113.82278 C42.408361,113.381047 46.0690927,116.004097 42.408361,117.606933 C38.7476294,119.20977 37.32496,120.971731 33.8699057,119.365579 C30.4148514,117.759427 26.2143183,115.011233 25.0631755,113.381047 C23.9112198,111.75086 18.3563054,108.918961 17.74659,104.706334 C17.1368745,100.493708 17.0011112,99.1336997 17.0011112,99.1336997" id="Fill-128-Copy" fill="#EAEDF4"></path>
                <path d="M37.3912554,122 C32.978985,122 31.7587267,120.78438 30.3458823,119.376342 C29.585372,118.619057 28.7994569,117.835345 27.3866125,117.113571 C25.1993261,115.994573 24.394562,115.067993 23.5422661,114.087734 C22.7432387,113.169413 21.9179868,112.21971 19.8101934,110.925636 C15.9429006,108.552204 13.0262456,102.362617 13.0262456,96.5281372 C13.0262456,93.7715207 12.1174031,91.7804475 10.9668036,89.2600181 C9.69327684,86.4695426 8.1075147,82.9961068 7.34044837,77.2714617 C6.4373425,70.5376539 7.32405806,65.2969444 10.0833661,62.1142003 C11.8502411,60.0768807 14.680847,59 17.139393,59 L17.139393,59.8258288 C14.680847,59.8258288 12.3304771,60.7780094 10.7004612,62.6584215 C8.13783677,65.612411 7.24702363,70.7631051 8.10505616,77.1599748 C8.8565517,82.7623973 10.4365772,86.1738959 11.6879771,88.9148217 C12.83284,91.4245153 13.8334682,93.59149 13.8334682,96.5281372 C13.8334682,102.874631 17.1320173,108.31932 20.2306047,110.220378 C22.4457546,111.580518 23.3554166,112.62354 24.1552636,113.543513 C24.9887106,114.502301 25.7098841,115.329781 27.7562139,116.376106 C29.2829709,117.158166 30.1541157,118.025286 30.921182,118.789178 C32.258631,120.122065 33.3149862,121.174171 37.3912554,121.174171 C43.9629487,121.174171 46.0617274,120.813284 53.371804,116.98309 C57.2858092,114.931731 60.2041032,114.002674 62.7782008,113.182626 C65.170366,112.421212 67.4289502,111.701915 70.1333507,110.211294 C73.1098303,108.568721 74.7464024,108.495222 75.8298017,108.447324 C76.8033859,108.403555 77.131192,108.389516 77.7556627,107.236659 C79.2553757,104.47261 79.942949,98.7694365 77.8982583,97.4819694 C75.5454299,96.0004326 66.0636377,95.163868 60.5384654,96.9220575 C56.0032677,98.3656062 45.0029136,101.721774 42.5443677,101.721774 L42.5443677,100.895946 C44.1833983,100.895946 50.9214532,99.1162846 60.2917913,96.1350427 C66.1095305,94.2835345 75.7855478,95.1869912 78.3162111,96.7816666 C81.0599484,98.5101262 79.9609784,104.879744 78.4661824,107.633883 C77.6573208,109.123678 77.0197379,109.2203 75.8625823,109.272327 C74.8545784,109.317747 73.3343775,109.385465 70.525079,110.935546 C67.7502002,112.464981 65.4555573,113.196665 63.0248749,113.970467 C60.3573526,114.820245 57.600503,115.697275 53.7496006,117.7156 C46.2772599,121.630855 44.1276713,122 37.3912554,122" id="Fill-130-Copy" fill="#5E5E5E"></path>
                <path d="M40.8782985,108 L40.0608554,107.838936 C40.376989,106.32461 39.8731771,104.794906 39.8690065,104.779528 C39.6462949,104.228349 39.4794698,103.860087 39.3593557,103.615659 L39.3535168,103.62618 L38.9531366,103.073383 C38.5769459,102.553769 38.2716559,101.792155 37.9938921,100.674419 C37.7236354,99.5858199 37.508431,98.2786921 37.2807147,96.8946744 C36.6476134,93.0477527 35.8593647,88.2611558 33.3836799,86.0297308 C32.2734587,85.0301624 31.2474842,84.1455242 30.3424579,83.3847191 C27.7274741,81.1880969 26,79.6187341 26,78 L26.8341256,78 C26.8341256,79.6187341 28.4464904,80.7210921 30.8879761,82.773647 C31.7988412,83.5384989 32.8306546,84.4166622 33.9508853,85.4259429 C36.6376039,87.8467598 37.4166772,92.5856041 38.1039967,96.7611288 C38.3292106,98.1297685 38.5419126,99.4239465 38.8046622,100.481789 C39.0298761,101.38828 39.2734408,102.043868 39.547034,102.47607 C39.7830915,102.60314 40.0616895,103.033724 40.6530845,104.506772 C40.6847813,104.597421 41.2394748,106.269573 40.8782985,108" id="Fill-132-Copy" fill="#5E5E5E"></path>
                <path d="M43.9716633,105 L43.1273546,104.91473 C43.3301584,102.944324 42.2058276,101.346765 41.0865882,100.508276 C40.3178005,99.9322859 39.6109571,99.7475342 39.3080242,99.8654074 L39,99.0871095 C39.6491419,98.8396593 40.6453414,99.1280726 41.5999618,99.842 C42.9024884,100.817589 44.2101063,102.68517 43.9716633,105" id="Fill-134-Copy" fill="#5E5E5E"></path>
            </g>
        </g>
    </g>
</svg>