<?xml version="1.0" encoding="UTF-8"?>
<svg width="644px" height="497px" viewBox="0 0 644 497" version="1.1" xmlns="http://www.w3.org/2000/svg" xmlns:xlink="http://www.w3.org/1999/xlink">
    <!-- Generator: Sketch 51 (57462) - http://www.bohemiancoding.com/sketch -->
    <title>Slice 1</title>
    <desc>Created with Sketch.</desc>
    <defs>
        <path d="M825.68899,270.970716 C738.389157,209.234366 626.824149,175.589182 544.275882,229.394358 C476.884057,273.320606 444.384235,290.814226 372.099511,335.390096 C280.467132,391.89721 8.06844848,813.441743 101.449484,893.570383 C283.906494,1050.13356 405.039011,773.922909 531.804517,741.338351 C618.136918,719.147749 673.636423,734.625889 801.422256,744.979103 C865.657476,750.183443 986.519106,724.836687 988.81427,635.486946 C991.883778,515.992068 916.222557,334.994093 825.68899,270.970716 Z" id="path-1"></path>
        <linearGradient x1="50%" y1="0%" x2="50%" y2="98.1733201%" id="linearGradient-3">
            <stop stop-color="#004BFF" offset="0%"></stop>
            <stop stop-color="#CDF1FF" offset="96.8524205%"></stop>
            <stop stop-color="#CDF1FF" offset="100%"></stop>
        </linearGradient>
        <linearGradient x1="50.0007795%" y1="9.20996441%" x2="50.0007795%" y2="97.7803985%" id="linearGradient-4">
            <stop stop-color="#5695FF" offset="0%"></stop>
            <stop stop-color="#2A62FF" offset="100%"></stop>
        </linearGradient>
        <linearGradient x1="9.27040435%" y1="97.7804005%" x2="86.7801429%" y2="97.7804005%" id="linearGradient-5">
            <stop stop-color="#5695FF" offset="0%"></stop>
            <stop stop-color="#2A62FF" offset="100%"></stop>
        </linearGradient>
        <linearGradient x1="5.71556241%" y1="53.4951815%" x2="94.2859965%" y2="53.4951815%" id="linearGradient-6">
            <stop stop-color="#5695FF" offset="0%"></stop>
            <stop stop-color="#004BFF" offset="100%"></stop>
        </linearGradient>
        <linearGradient x1="100%" y1="49.984051%" x2="-60.8126611%" y2="49.9840498%" id="linearGradient-7">
            <stop stop-color="#00BBFF" offset="0%"></stop>
            <stop stop-color="#84A8FF" offset="100%"></stop>
        </linearGradient>
        <linearGradient x1="4.20719553e-14%" y1="49.984051%" x2="100%" y2="49.984051%" id="linearGradient-8">
            <stop stop-color="#00BBFF" offset="0%"></stop>
            <stop stop-color="#7DA3FF" offset="100%"></stop>
        </linearGradient>
        <linearGradient x1="100%" y1="49.9997427%" x2="0%" y2="49.9997427%" id="linearGradient-9">
            <stop stop-color="#B5C6FF" offset="0%"></stop>
            <stop stop-color="#D1E0FF" offset="100%"></stop>
        </linearGradient>
        <linearGradient x1="50%" y1="99.9997427%" x2="50%" y2="-0.000257283072%" id="linearGradient-10">
            <stop stop-color="#91AAFF" offset="0%"></stop>
            <stop stop-color="#BAD1FF" offset="100%"></stop>
        </linearGradient>
        <linearGradient x1="50%" y1="99.9997427%" x2="50%" y2="-0.000257283072%" id="linearGradient-11">
            <stop stop-color="#7493FF" offset="0%"></stop>
            <stop stop-color="#BAD1FF" offset="100%"></stop>
        </linearGradient>
        <linearGradient x1="21%" y1="-1%" x2="9%" y2="17%" id="linearGradient-12">
            <stop stop-color="#C412E1" offset="0%"></stop>
            <stop stop-color="#BB11E2" offset="15%"></stop>
            <stop stop-color="#A10CE4" offset="41%"></stop>
            <stop stop-color="#7806E7" offset="74%"></stop>
            <stop stop-color="#5300EA" offset="99%"></stop>
        </linearGradient>
        <filter x="-19.4%" y="-13.0%" width="138.9%" height="133.2%" filterUnits="objectBoundingBox" id="filter-13">
            <feOffset dx="0" dy="8" in="SourceAlpha" result="shadowOffsetOuter1"></feOffset>
            <feGaussianBlur stdDeviation="11.5" in="shadowOffsetOuter1" result="shadowBlurOuter1"></feGaussianBlur>
            <feColorMatrix values="0 0 0 0 0   0 0 0 0 0   0 0 0 0 0  0 0 0 0.0411005435 0" type="matrix" in="shadowBlurOuter1" result="shadowMatrixOuter1"></feColorMatrix>
            <feMerge>
                <feMergeNode in="shadowMatrixOuter1"></feMergeNode>
                <feMergeNode in="SourceGraphic"></feMergeNode>
            </feMerge>
        </filter>
        <linearGradient x1="48.3842967%" y1="107.464278%" x2="52.1251363%" y2="-10.7124478%" id="linearGradient-14">
            <stop stop-color="#FFFFFF" offset="37%"></stop>
            <stop stop-color="#FFF6F6" offset="81%"></stop>
            <stop stop-color="#FFF1F1" offset="96%"></stop>
        </linearGradient>
        <linearGradient x1="-0.035945363%" y1="50.0081981%" x2="100%" y2="50.0081981%" id="linearGradient-15">
            <stop stop-color="#4684FF" offset="0%"></stop>
            <stop stop-color="#9DC9FF" offset="100%"></stop>
        </linearGradient>
        <linearGradient x1="27.9502467%" y1="44.6306195%" x2="99.9999335%" y2="49.9998511%" id="linearGradient-16">
            <stop stop-color="#3475FF" offset="0%"></stop>
            <stop stop-color="#CDF0FF" offset="100%"></stop>
        </linearGradient>
        <linearGradient x1="0.077784226%" y1="49.9727473%" x2="100.049961%" y2="49.9727473%" id="linearGradient-17">
            <stop stop-color="#D6C3E2" offset="0%"></stop>
            <stop stop-color="#F7E2EC" offset="100%"></stop>
        </linearGradient>
        <linearGradient x1="50%" y1="49.999851%" x2="99.9999335%" y2="49.9998511%" id="linearGradient-18">
            <stop stop-color="#3475FF" offset="0%"></stop>
            <stop stop-color="#CDF0FF" offset="100%"></stop>
        </linearGradient>
        <linearGradient x1="-0.0134622258%" y1="50.1024229%" x2="100.183613%" y2="50.1024229%" id="linearGradient-19">
            <stop stop-color="#D6C3E2" offset="0%"></stop>
            <stop stop-color="#F7E2EC" offset="100%"></stop>
        </linearGradient>
        <linearGradient x1="0.060157047%" y1="49.988152%" x2="208.433115%" y2="49.988152%" id="linearGradient-20">
            <stop stop-color="#2D8AF4" offset="0%"></stop>
            <stop stop-color="#21A7F7" offset="11%"></stop>
            <stop stop-color="#15C5F9" offset="26%"></stop>
            <stop stop-color="#0CDCFB" offset="42%"></stop>
            <stop stop-color="#05EDFD" offset="58%"></stop>
            <stop stop-color="#01F7FE" offset="77%"></stop>
            <stop stop-color="#00FAFE" offset="100%"></stop>
        </linearGradient>
        <linearGradient x1="0%" y1="50.0001951%" x2="99.8960031%" y2="50.0001951%" id="linearGradient-21">
            <stop stop-color="#D6C3E2" offset="0%"></stop>
            <stop stop-color="#F7E2EC" offset="100%"></stop>
        </linearGradient>
        <linearGradient x1="29.6732519%" y1="70.6071935%" x2="90.2035114%" y2="-2.00152194%" id="linearGradient-22">
            <stop stop-color="#2D8AF4" offset="0%"></stop>
            <stop stop-color="#21A7F7" offset="11%"></stop>
            <stop stop-color="#15C5F9" offset="26%"></stop>
            <stop stop-color="#0CDCFB" offset="42%"></stop>
            <stop stop-color="#05EDFD" offset="58%"></stop>
            <stop stop-color="#01F7FE" offset="77%"></stop>
            <stop stop-color="#00FAFE" offset="100%"></stop>
        </linearGradient>
    </defs>
    <g id="Page-1" stroke="none" stroke-width="1" fill="none" fill-rule="evenodd">
        <g id="Group" transform="translate(-71.000000, -393.000000)">
            <g id="Group-15-Copy">
                <mask id="mask-2" fill="white">
                    <use xlink:href="#path-1"></use>
                </mask>
                <use id="Fill-1" fill="#00BBFF" opacity="0.0766314338" transform="translate(535.567395, 571.880311) rotate(63.000000) translate(-535.567395, -571.880311) " xlink:href="#path-1"></use>
                <g id="Group-15" mask="url(#mask-2)">
                    <g transform="translate(38.530313, 135.511222)">
                        <path d="M737.848413,1.02248187 C682.586252,-10.0722475 385.898805,209.443259 318.02787,209.443259 C250.156934,209.443259 82.9004532,184.300895 32.4653564,209.443259 C-39.9749716,245.629145 33.8396097,459.859463 32.4653564,524.533201 C183.220945,524.174756 740.502388,524.618545 790.576743,524.533201 C765.960431,481.400307 863.901799,26.3184648 737.848413,1.02248187 Z" id="Shape" fill="url(#linearGradient-3)" fill-rule="nonzero"></path>
                        <ellipse id="Oval" fill="#FFFFFF" fill-rule="nonzero" cx="571.472614" cy="535.780502" rx="36.8586385" ry="36.8093474"></ellipse>
                        <path d="M465.965305,526.578165 C465.965305,526.578165 509.434657,498.371019 516.111714,498.980903 C532.787236,500.505614 518.166193,512.533886 540.080637,518.937671 C546.774814,520.902853 564.255007,526.578165 564.255007,526.578165 L465.965305,526.578165 Z" id="Shape" fill="url(#linearGradient-4)" fill-rule="nonzero"></path>
                        <path d="M414.772751,523.510719 C414.772751,523.510719 439.435166,483.804237 447.506188,484.670375 C467.657817,486.827228 459.880602,503.657478 486.392266,512.794384 C494.48057,515.579612 533.539475,523.510719 533.539475,523.510719 L414.772751,523.510719 Z" id="Shape" fill="url(#linearGradient-5)" fill-rule="nonzero"></path>
                        <path d="M358.724311,525.555683 C209.419387,525.555683 352.106404,460.173551 361.268338,461.150157 C384.147387,463.591674 410.842475,504.575478 440.92387,514.914038 C450.102992,518.062752 493.609283,523.467765 493.609283,523.467765 L358.724311,525.555683 Z" id="Shape" fill="url(#linearGradient-6)" fill-rule="nonzero"></path>
                        <path d="M780.168088,522.86959 C742.648275,523.092497 321.983541,521.909376 209.029336,522.86959 C209.029336,523.349697 209.029336,526.796181 209.029336,527.276288 C387.789106,539.844808 534.058022,679.315943 797.743701,622.388949 C794.877365,560.883791 791.873721,572.88647 780.168088,522.86959 Z" id="Shape" fill="#45CDFF" fill-rule="nonzero"></path>
                        <path d="M492.918852,522.930063 C508.597242,522.930063 521.303912,531.6774 521.303912,536.173686 C521.303912,540.669971 508.597242,544.304899 492.918852,544.304899 L479.733974,544.304899 C473.175693,544.304899 467.864168,545.407437 467.864168,546.768382 C467.864168,548.129326 473.175693,549.231864 479.733974,549.231864 C488.000141,549.231864 494.917078,551.075168 494.917078,553.331925 C494.917078,555.588681 488.085535,557.431986 479.546107,557.431986 L268.412698,556.230139 L274.117036,521.465755 L492.918852,522.930063 Z" id="Shape" fill="url(#linearGradient-7)" fill-rule="nonzero"></path>
                        <path d="M598.265594,573.113321 C571.035066,573.113321 548.947891,566.939944 548.947891,559.308021 C548.947891,551.676099 571.035066,545.502722 598.265594,545.502722 L621.178458,545.502722 C632.566083,545.502722 641.820678,543.637141 641.820678,541.330605 C641.820678,539.024068 632.583285,537.158487 621.178458,537.158487 L621.522495,537.158487 C606.832116,537.158487 594.928435,534.037879 594.928435,530.187999 C594.928435,526.338118 606.832116,522.488237 621.522495,522.488237 L781.362084,522.488237 L771.436616,575.657295 L598.265594,573.113321 Z" id="Shape" fill="url(#linearGradient-8)" fill-rule="nonzero"></path>
                        <path d="M790.418495,638.579458 C790.023606,633.991642 762.724771,584.00321 761.969332,579.432449 C726.22331,574.571752 473.35712,563.485952 263.293443,547.027802 C342.271205,591.865601 431.344384,591.371004 504.862379,665.799362 C553.691239,653.707312 590.707772,673.968744 616.718926,663.582201 C704.126706,628.465797 794.882455,689.727635 790.418495,638.579458 Z" id="Shape" fill="url(#linearGradient-9)" fill-rule="nonzero"></path>
                        <path d="M586.282629,440.387522 C586.483221,439.75056 586.483221,439.067465 586.282629,438.430503 L583.175319,427.358358 C582.956637,426.552694 583.294159,425.699297 584.005112,425.260293 L586.812284,423.937983 C587.454833,423.646238 588.049953,423.259944 588.577801,422.79198 L588.43656,422.492257 L588.295318,422.210164 C587.588407,422.32928 586.903779,422.555193 586.264974,422.880134 L583.457802,424.202445 C582.656306,424.54811 581.722019,424.300283 581.19794,423.602997 L574.612561,414.152887 C574.135871,413.465286 573.464975,412.865838 573.147182,412.830577 C572.829389,412.795315 572.917665,414.029471 573.147182,414.840488 L576.254492,425.912633 C576.465952,426.762622 576.063788,427.646162 575.283457,428.04596 L572.017251,429.57984 C571.206694,429.871284 570.303858,429.535982 569.880975,428.786454 L569.333665,427.83439 C569.074508,427.291241 568.693982,426.814732 568.221389,426.441557 C568.027182,426.441557 568.097803,427.411251 568.221389,428.204637 L568.503872,429.526947 C568.680424,430.355595 568.83932,431.060827 568.87463,431.11372 C568.944189,431.193193 569.028022,431.258971 569.121803,431.307658 C569.157506,431.36102 569.157506,431.430605 569.121803,431.483966 C569.114473,431.560191 569.114473,431.636942 569.121803,431.713167 C569.432754,432.193368 569.774817,432.652749 570.145803,433.088369 L570.993251,434.146218 C571.329657,434.646332 571.776655,435.062552 572.299734,435.362743 C572.49394,435.362743 572.299734,434.375418 571.98194,433.599663 L571.593527,432.559445 C571.330227,431.74744 571.687187,430.863698 572.440975,430.46138 L575.707182,428.9275 C576.508678,428.581834 577.442964,428.829662 577.967043,429.526947 L584.552422,438.977058 C585.205664,439.805705 586.106077,440.651984 586.282629,440.387522 Z" id="Shape" fill="#44284F" fill-rule="nonzero"></path>
                        <path d="M255.102634,525.002735 C193.348067,519.99018 274.1581,526.633532 219.779772,525.002735 L188.578511,525.002735 C191.717701,575.488775 183.346527,613.011853 208.494359,624.736425 C275.600989,655.996227 235.354396,688.743935 278.651209,684.040373 C287.20002,683.106598 304.901653,706.737825 313.462145,707.557456 C383.279114,714.269473 408.785005,715.737311 467.709155,715.737311 C499.341216,715.737311 527.748317,689.215403 562.982728,691.704514 C635.475729,696.66557 791.544212,696.135424 831.255829,659.468243 C735.845023,603.763653 349.244041,547.078576 255.102634,525.002735 Z" id="Shape" fill="url(#linearGradient-10)" fill-rule="nonzero"></path>
                        <path d="M801.960303,703.581071 C836.741087,683.213164 610.436308,625.758906 515.626466,625.758906 C420.816624,625.758906 229.317673,593.651319 236.161389,620.135256 C252.543007,683.529132 515.626466,957.043033 763.956615,957.043033 C868.76708,957.043033 770.769239,721.809491 801.960303,703.581071 Z" id="Shape" fill="url(#linearGradient-11)" fill-rule="nonzero"></path>
                        <polygon id="Shape" fill="url(#linearGradient-12)" fill-rule="nonzero" points="634.951381 635.062879 634.951381 635.062879 635.320263 634.961243"></polygon>
                        <polygon id="Shape" fill="#5E3B72" fill-rule="nonzero" points="536.661678 692.220228 533.590125 692.220228 535.491563 689.152783"></polygon>
                        <polygon id="Shape" fill="url(#linearGradient-12)" fill-rule="nonzero" points="554.067146 635.062879 554.067146 635.062879 554.436028 634.961243"></polygon>
                        <path d="M533.590125,691.197746 L536.661678,691.197746" id="Shape" fill="none"></path>
                        <rect id="Rectangle-path" fill="#44284F" fill-rule="nonzero" transform="translate(512.294625, 459.343277) rotate(-25.320000) translate(-512.294625, -459.343277) " x="444.20933" y="458.84328" width="136.172192" height="1"></rect>
                    </g>
                </g>
            </g>
            <g id="Group-8-Copy" filter="url(#filter-13)" transform="translate(245.000000, 574.000000)">
                <path d="M196.271412,234.964366 C131.303889,223.385145 66.4015285,211.426455 1.46658689,199.652078 C0.586598495,199.401743 -0.0149348923,198.59217 0.000419114186,197.67884 L0.000419114186,36.0467921 C-0.0178925512,35.1892242 0.565620967,34.4351122 1.40142388,34.2361835 C66.412389,24.7277782 131.33647,14.6013808 196.347435,5.12550139 C196.773274,5.05979599 197.206131,5.18879163 197.526203,5.47678524 C197.846275,5.76477885 198.01961,6.18122134 197.998232,6.61085091 L197.998232,233.55491 C198.009254,233.990177 197.818145,234.406095 197.480489,234.681695 C197.142833,234.957294 196.696539,235.061634 196.271412,234.964366 Z" id="Shape" fill="url(#linearGradient-14)" fill-rule="nonzero"></path>
                <path d="M34.6074499,192.995169 C24.2422635,191.119393 18.5786997,190.100186 5.05748168,187.714806 C4.91337065,146.512796 4.7404374,105.310785 4.53868195,64.1087743 C17.8113085,62.6450186 23.4532556,61.9402474 33.8832919,60.736715 C34.1138696,104.830095 34.3552555,148.916246 34.6074499,192.995169 Z" id="Shape" fill="url(#linearGradient-15)" fill-rule="nonzero"></path>
                <path d="M39.345485,87.9830918 C38.683896,87.9830918 38.14161,87.3171898 38.1307643,86.3935193 C38.1307643,77.0708915 38.0548442,72.2914337 38.0114613,62.0451354 C38.0114613,61.0355421 38.5429017,60.1440927 39.2153364,60.0689102 C70.0605673,56.2883054 100.873261,52.3251145 131.751029,48.8237589 C132.629533,48.7270957 133.334504,49.5970644 133.323659,50.7785034 C133.236893,62.7002971 133.19351,68.575271 133.11759,80.2822575 C133.208548,81.2925696 132.53246,82.2143051 131.534115,82.4410688 C100.808187,84.0950834 70.1039502,86.1250104 39.345485,87.9830918 Z" id="Shape" fill="#3979FF" fill-rule="nonzero"></path>
                <path d="M121.585935,71.9293445 C97.4780423,73.9215571 73.3917899,76.1532707 49.3055376,78.3305523 C48.6887737,78.3849843 48.2234957,77.6338222 48.2234957,76.6540455 L48.2234957,73.0615309 C48.2234957,72.0599814 48.721235,71.1999551 49.3055376,71.1346367 C73.4242512,68.5654444 97.5321444,65.9527066 121.672499,63.5794696 C122.47321,63.5032648 123.122435,64.3850638 123.111615,65.5390231 L123.111615,69.7302901 C123.057512,70.8951357 122.386646,71.9293445 121.585935,71.9293445 Z" id="Shape" fill="#FFFFFF" fill-rule="nonzero"></path>
                <path d="M61.9191507,119.770531 L39.2880855,119.03347 C38.6444981,119.03347 38.1169674,118.296409 38.1169674,117.422465 C38.1169674,109.430616 38.0536638,105.482073 38.0114613,97.416518 C38.0114613,96.542574 38.5284414,95.8055128 39.1720288,95.7739244 C48.9418965,95.3738055 53.2465467,95.1842755 61.9191507,94.794686 C62.4888838,94.794686 62.974212,95.5212177 62.974212,96.4688679 C62.974212,105.218837 62.974212,109.493792 62.974212,118.148997 C62.9425602,119.03347 62.4783332,119.770531 61.9191507,119.770531 Z" id="Shape" fill="#1BB7FF" fill-rule="nonzero"></path>
                <polygon id="Shape" fill="#FFFFFF" fill-rule="nonzero" points="29.5014327 72.2713611 16.4527221 73.2246377 16.4527221 71.9420474 29.5014327 70.9541063"></polygon>
                <polygon id="Shape" fill="#FFFFFF" fill-rule="nonzero" points="26.6647564 74.1089756 16.4527221 74.9275362 16.4527221 73.5047998 26.6647564 72.6570048"></polygon>
                <polygon id="Shape" fill="#FFFFFF" fill-rule="nonzero" points="29.5014327 82.6254344 16.4527221 83.442029 16.4527221 82.0378846 29.5014327 81.1714976"></polygon>
                <polygon id="Shape" fill="#FFFFFF" fill-rule="nonzero" points="26.6647564 84.6416078 16.4527221 85.1449275 16.4527221 83.9789034 26.6647564 83.442029"></polygon>
                <polygon id="Shape" fill="#FFFFFF" fill-rule="nonzero" points="29.5014327 92.6502952 16.4527221 93.0917874 16.4527221 91.8754313 29.5014327 91.3888889"></polygon>
                <polygon id="Shape" fill="#FFFFFF" fill-rule="nonzero" points="26.6647564 96.168955 16.4527221 96.4975845 16.4527221 95.1631494 26.6647564 94.794686"></polygon>
                <path d="M61.9128706,153.255802 C53.3266183,152.191761 49.0494123,151.617179 39.2956845,150.404173 C38.6482662,150.32969 38.1175955,149.489098 38.1175955,148.552742 C38.1175955,139.859528 38.053915,135.784252 38.0114613,127.548575 C38.0114613,126.665422 38.5315186,125.973795 39.1789369,126.016357 L61.9128706,127.303846 C62.485995,127.303846 62.974212,128.133798 62.974212,129.091435 C62.974212,137.912333 62.974212,142.360024 62.974212,151.574618 C62.9317584,152.574816 62.4753816,153.330285 61.9128706,153.255802 Z" id="Shape" fill="#45CDFF" fill-rule="nonzero"></path>
                <path d="M61.9274215,193.555055 C53.3821923,191.936253 49.1095777,191.126851 39.3039272,189.297383 C38.663035,189.175419 38.1289582,188.133176 38.1182767,186.968969 C38.1182767,176.247177 38.0541875,171.279893 38.0114613,161.766658 C38.0114613,160.735504 38.5348566,159.981541 39.1757488,160.08133 C48.9920808,161.522729 53.2753769,162.176903 61.9060584,163.48525 C62.4721798,163.573951 62.974212,164.505317 62.974212,165.59191 C62.974212,175.570828 62.974212,180.704426 62.974212,191.603622 C62.9421674,192.778917 62.4935429,193.654844 61.9274215,193.555055 Z" id="Shape" fill="#85A3FF" fill-rule="nonzero"></path>
                <path d="M131.539905,95.7052393 C110.271255,96.259998 89.0026039,96.902535 67.7339532,97.6328502 C67.3019562,97.6328502 66.9455587,97.0851138 66.9455587,96.3688431 L66.9455587,96.2529757 C66.9455587,95.536705 67.3019562,94.9363016 67.7339532,94.9257682 C89.0026039,94.0339409 110.278455,93.2334031 131.561505,92.5241546 C132.220301,92.5241546 132.749497,93.1666916 132.749497,94.009363 L132.749497,94.1462971 C132.82359,94.8937442 132.297566,95.5716931 131.539905,95.7052393 Z" id="Shape" fill="#DEDAED" fill-rule="nonzero"></path>
                <path d="M116.333187,101.699138 C100.130693,102.002675 83.9318113,102.350144 67.7365409,102.741546 C67.303126,102.741546 66.9455587,102.106516 66.9455587,101.291761 L66.9455587,101.159962 C66.9455587,100.345207 67.303126,99.6742317 67.7365409,99.66225 C83.9390349,99.1270676 100.145141,98.6398119 116.354858,98.2004831 C116.929133,98.2004831 117.438395,98.9193849 117.438395,99.8539571 L117.438395,100.009719 C117.384219,100.908346 116.907462,101.699138 116.333187,101.699138 Z" id="Shape" fill="#DEDAED" fill-rule="nonzero"></path>
                <path d="M72.3876422,74.2424195 C64.0978008,74.9646364 60.0841176,75.3207982 51.345881,76.0628019 C50.875613,76.0628019 50.4928367,75.5879195 50.4928367,74.9151695 L50.4928367,74.8063423 C50.4928367,74.1335922 50.8646765,73.5399893 51.3349446,73.5004157 C60.0841176,72.7089451 64.0868643,72.3329965 72.3876422,71.5217391 C72.8360373,71.5217391 73.1860043,72.0263017 73.1860043,72.7386252 L73.1860043,72.8573458 C73.1969407,73.5993496 72.8360373,74.2028459 72.3876422,74.2424195 Z" id="Shape" fill="#DEDAED" fill-rule="nonzero"></path>
                <path d="M121.432436,106.926962 C103.539053,107.00872 85.6420361,107.127269 67.7413855,107.282609 C67.305316,107.282609 66.9455587,106.62037 66.9455587,105.786441 L66.9455587,105.65154 C66.9455587,104.829874 67.305316,104.143108 67.7413855,104.143108 C85.6420361,103.824253 103.546321,103.546276 121.454239,103.309179 C122.064736,103.309179 122.544413,104.069526 122.544413,105.026093 L122.544413,105.185521 C122.544413,106.142087 122.042933,106.926962 121.432436,106.926962 Z" id="Shape" fill="#DEDAED" fill-rule="nonzero"></path>
                <path d="M131.532934,136.229756 C110.260495,134.812546 88.991672,133.352742 67.726464,131.850344 C67.2926278,131.850344 66.9455587,131.153356 66.9455587,130.363435 L66.9455587,130.235654 C66.9455587,129.445734 67.3034737,128.83006 67.726464,128.853293 C88.9989026,130.185316 110.274956,131.474745 131.554626,132.72158 C132.31457,132.890217 132.830815,133.64923 132.747675,134.475668 L132.747675,134.626682 C132.73683,135.556001 132.194534,136.276222 131.532934,136.229756 Z" id="Shape" fill="#DEDAED" fill-rule="nonzero"></path>
                <path d="M116.326747,140.770783 C100.124282,139.508361 83.9254507,138.212124 67.7302521,136.882072 C67.2943113,136.882072 66.9455587,136.194503 66.9455587,135.41676 L66.9455587,135.292772 C66.9455587,134.526302 67.2943113,133.928905 67.7302521,133.96272 C83.9327164,135.172542 100.138814,136.344791 116.348544,137.479468 C116.926165,137.479468 117.438395,138.25721 117.438395,139.136397 L117.438395,139.282929 C117.416598,140.150844 116.958861,140.81587 116.326747,140.770783 Z" id="Shape" fill="#DEDAED" fill-rule="nonzero"></path>
                <path d="M120.335749,145.87223 C102.796735,144.382553 85.2577212,142.843689 67.7187071,141.255637 C67.2891802,141.255637 66.9455587,140.591606 66.9455587,139.864335 L66.9455587,139.748393 C66.9455587,139.021122 67.2891802,138.462493 67.7187071,138.504653 C85.2577212,139.966223 102.796735,141.371579 120.335749,142.72072 C120.937087,142.72072 121.409567,143.479612 121.409567,144.301745 L121.409567,144.438767 C121.420305,145.334681 120.937087,145.967091 120.335749,145.87223 Z" id="Shape" fill="#DEDAED" fill-rule="nonzero"></path>
                <path d="M131.550799,175.389096 C110.258991,172.566911 88.9853388,169.578922 67.7298409,166.425129 C67.2941286,166.36163 66.9455587,165.673722 66.9455587,164.901149 L66.9455587,164.774151 C66.9455587,164.001577 67.2941286,163.419502 67.7298409,163.483001 C89.0071244,166.509795 110.280777,169.377841 131.550799,172.087139 C132.32256,172.310898 132.824207,173.033118 132.749007,173.8122 L132.749007,173.960365 C132.781686,174.849353 132.237045,175.484345 131.550799,175.389096 Z" id="Shape" fill="#DEDAED" fill-rule="nonzero"></path>
                <path d="M116.320715,181.066378 C100.110703,178.460806 83.9153012,175.781124 67.7345093,173.027332 C67.2962034,172.957122 66.9455587,172.184812 66.9455587,171.307187 L66.9455587,171.166767 C66.9455587,170.300843 67.2962034,169.657252 67.7345093,169.727462 C83.9226063,172.411044 100.125313,175.008814 116.342631,177.520772 C116.923386,177.614386 117.438395,178.445204 117.438395,179.381338 L117.438395,179.533459 C117.394565,180.469593 116.901471,181.159991 116.320715,181.066378 Z" id="Shape" fill="#DEDAED" fill-rule="nonzero"></path>
                <path d="M120.298453,186.17553 C102.755196,183.362087 85.2263248,180.452647 67.7118389,177.447211 C67.2802704,177.369675 66.9350157,176.627546 66.9458049,175.796805 L66.9458049,175.65281 C66.9458049,174.810993 67.2910596,174.201782 67.7226281,174.268242 C85.2443068,177.221988 102.780371,180.053892 120.330821,182.763954 C120.935017,182.852566 121.409742,183.661154 121.409742,184.558354 L121.409742,184.713426 C121.388164,185.610626 120.89186,186.264142 120.298453,186.17553 Z" id="Shape" fill="#DEDAED" fill-rule="nonzero"></path>
                <path d="M11.9709393,75.8520279 L9.62616774,76.0586057 C9.33902848,76.0847833 9.05425452,75.9876314 8.8418069,75.7910176 C8.62935928,75.5944039 8.50892719,75.3165499 8.51009743,75.0257167 L8.51009743,72.4848098 C8.50347264,71.8328033 8.97617594,71.2764842 9.61592856,71.1833697 L11.9607001,70.9561342 C12.2556518,70.9374741 12.5442114,71.0482816 12.7522001,71.260072 C12.9601887,71.4718623 13.0673196,71.7639778 13.0460529,72.0613254 L13.0460529,74.6332189 C13.0362198,75.251959 12.5790079,75.77028 11.9709393,75.8520279 Z" id="Shape" fill="#5300EA" fill-rule="nonzero"></path>
                <path d="M11.9725608,86.690428 L9.62664979,86.8433874 C9.33937099,86.8710774 9.05445864,86.7683124 8.84190778,86.5603388 C8.62935692,86.3523652 8.5088663,86.0584575 8.51003711,85.7508207 L8.51003711,83.2051404 C8.51785483,82.5399001 8.99527852,81.9882827 9.61640564,81.9268374 L11.9623167,81.741101 C12.2444923,81.7230111 12.5211348,81.8300838 12.726758,82.0369731 C12.9323812,82.2438625 13.0487062,82.5321771 13.0481969,82.8336677 L13.0481969,85.412125 C13.0665048,86.0759171 12.5932944,86.6382878 11.9725608,86.690428 Z" id="Shape" fill="#FFFFFF" fill-rule="nonzero"></path>
                <path d="M11.9831526,95.8442818 L9.62676154,95.9258114 C9.33945399,95.95164 9.05451313,95.8557832 8.841941,95.6617904 C8.62936886,95.4677976 8.50886618,95.1936475 8.51003711,94.9066913 L8.51003711,92.6238623 C8.52559643,92.0190914 9.00893012,91.5294007 9.61651637,91.5028302 L11.9626622,91.390727 C12.244866,91.3738531 12.5215362,91.473728 12.72718,91.6667094 C12.9328238,91.8596909 13.0491605,92.1286238 13.0486511,92.4098471 L13.0486511,94.7232497 C13.0547989,95.321327 12.5837975,95.8168768 11.9831526,95.8442818 Z" id="Shape"></path>
                <polygon id="Shape" fill="#FFFFFF" fill-rule="nonzero" points="29.5014327 102.534142 16.4527221 102.741546 16.4527221 101.300632 29.5014327 101.038647"></polygon>
                <polygon id="Shape" fill="#FFFFFF" fill-rule="nonzero" points="26.6647564 104.914769 16.4527221 105.012077 16.4527221 103.455141 26.6647564 103.309179"></polygon>
                <polygon id="Shape" fill="#FFFFFF" fill-rule="nonzero" points="29.5014327 112.391304 16.4527221 112.225745 16.4527221 110.688406 29.5014327 110.830314"></polygon>
                <polygon id="Shape" fill="#FFFFFF" fill-rule="nonzero" points="26.6647564 114.094203 16.4527221 113.857376 16.4527221 112.391304 26.6647564 112.583021"></polygon>
                <path d="M11.9753724,105.57831 L9.62425422,105.57831 C9.03512994,105.602849 8.53765076,105.118162 8.51002865,104.492735 L8.51002865,102.126181 C8.55292774,101.51281 9.03486692,101.038916 9.61403197,101.040605 L11.9651501,101.040605 C12.2467225,101.022631 12.5227736,101.129019 12.7279572,101.334584 C12.9331408,101.54015 13.0492172,101.826619 13.0487089,102.126181 L13.0487089,104.536158 C13.0381312,104.82612 12.9186794,105.099515 12.717016,105.295319 C12.5153527,105.491124 12.2482662,105.593036 11.9753724,105.57831 Z" id="Shape" fill="#FFFFFF" fill-rule="nonzero"></path>
                <path d="M13.6763512,114.660428 L11.3259333,114.60706 C10.744945,114.609132 10.2600081,114.144459 10.2120396,113.539712 L10.2120396,111.191546 C10.2111235,110.893033 10.329938,110.60776 10.539654,110.404946 C10.74937,110.202133 11.0308206,110.100315 11.3157141,110.124198 L13.666132,110.124198 C14.2412374,110.123235 14.7168157,110.591838 14.7493681,111.191546 L14.7493681,113.539712 C14.7642122,113.841431 14.6559374,114.135586 14.4514009,114.349215 C14.2468644,114.562844 13.9652284,114.675932 13.6763512,114.660428 Z" id="Shape" fill="#FFFFFF" fill-rule="nonzero"></path>
                <path d="M11.3467049,73.4030366 L13.1762832,75.4951691 C15.1925533,73.5003451 16.1882422,72.4786059 18.1547278,70.3864734" id="Shape"></path>
                <g id="Group-6" fill-rule="nonzero">
                    <path d="M198,24.2411192 C131.913115,32.8475858 66.0651637,43.0354906 0,51.7925704 L0,34.8701054 C0,31.5566158 2.31331249,28.4152555 5.06104986,27.9956902 C67.4227415,18.7150504 129.73737,9.40213629 192.004937,0.0569479467 C193.54965,-0.172840901 195.11657,0.300049203 196.269517,1.34398129 C197.422464,2.38791337 198.038337,3.89142549 197.945697,5.43598959 L198,24.2411192 Z" id="Shape" fill="#DEDAED"></path>
                    <path d="M151.043572,23.6143448 C119.418677,28.1188783 87.8370743,32.8890092 56.2338255,37.5422773 C55.5627976,37.6378924 55.010823,36.7879804 55,35.6299753 C55,33.9513992 55,33.0908633 55,31.3804155 C55,30.1905387 55.5411515,29.1387727 56.2121794,29.0431576 C87.8478973,24.33677 119.472792,19.5560152 151.119333,14.9027471 C151.995999,14.7752603 152.710319,15.6464201 152.699496,16.8575447 L152.699496,21.2239674 C152.779901,22.3015215 152.094015,23.2916192 151.043572,23.6143448 Z" id="Shape" fill="#FFFFFF"></path>
                    <path d="M15.5223933,39.0415406 C15.6267874,40.688475 14.5567097,42.1781113 12.9724452,42.591278 C11.5449102,42.8000861 10.3571139,41.5692174 10.3571139,39.7888537 C10.2769617,38.1143227 11.3589613,36.6076415 12.961548,36.162187 C14.3781858,35.9533789 15.5223933,37.2611769 15.5223933,39.0415406 Z" id="Shape" fill="#C412E1"></path>
                    <path d="M23.2941176,37.8794416 C23.2941176,39.6632296 22.2831048,41.2172045 21.0597794,41.4141873 C19.8364539,41.61117 18.7748904,40.3198387 18.7647803,38.5907681 C18.7546702,36.8616975 19.7757931,35.1764008 21.0395591,34.979418 C22.3033251,34.7824353 23.2840075,36.106597 23.2941176,37.8794416 Z" id="Shape" fill="#3198F4"></path>
                    <path d="M30.4117647,36.5964461 C30.4117647,38.3752579 29.4350432,39.9358107 28.1792584,40.1213309 C26.9234737,40.3068512 25.8823529,39.0300353 25.8823529,37.2730493 C25.8823529,35.5160634 26.9556733,33.868207 28.157792,33.6826867 C29.3599108,33.4971665 30.4117647,34.8067212 30.4117647,36.5964461 Z" id="Shape" fill="#5300EA"></path>
                    <path d="M69.6666667,32.9477529 L59.8004022,34.3070713 C59.3026647,34.3775545 58.8823529,33.763344 58.8823529,32.9276148 L58.8823529,32.7866485 C58.8823529,31.9509194 59.280543,31.2158805 59.7893414,31.1453973 L69.6666667,29.7860789 C70.1422826,29.7155957 70.5294118,30.3499443 70.5294118,31.1856734 L70.5294118,31.3266398 C70.5183509,32.1522999 70.1422826,32.8772697 69.6666667,32.9477529 Z" id="Shape" fill="#DEDAED"></path>
                    <path d="M96.8820497,28.7107981 L73.3052608,32.3658879 C72.8499848,32.4317454 72.4705882,31.7621944 72.4705882,30.851166 L72.4705882,30.6974985 C72.4705882,29.7864701 72.8391449,28.9852042 73.2944209,28.9083705 L96.8928896,25.2532807 C97.3481656,25.1874232 97.7058824,25.8679504 97.7058824,26.7899551 L97.7058824,26.9436225 C97.6950424,27.8436746 97.3373257,28.6449406 96.8820497,28.7107981 Z" id="Shape" fill="#DEDAED"></path>
                </g>
            </g>
            <g id="Group-16-Copy" transform="translate(194.000000, 693.000000)" fill-rule="nonzero">
                <polygon id="Shape" fill="#0EDDDD" points="30.3947734 40.7142857 30.7706422 46.4285714 26.4770642 43.356998"></polygon>
                <path d="M29.049935,159.951313 L26.4085343,159.951313 L24.8376572,158.67713 L18.7985076,153.231903 L19.2872249,152.142857 L9.53615093,153.351698 L7.91872935,158.960282 C7.74233928,159.552938 8.0742909,160.174297 8.6867137,160.397822 L19.1592275,164.285714 L29.2477491,164.285714 C30.4499938,164.275069 31.4323599,163.384387 31.4818854,162.26009 C31.5222654,161.642702 31.2802706,161.038363 30.8162891,160.597881 C30.3523076,160.1574 29.7101037,159.922323 29.049935,159.951313 Z" id="Shape" fill="#44284F"></path>
                <path d="M10.8340465,150.905849 L10.8340465,152.918846 C10.8340465,152.918846 10.1465477,154.227294 12.3749921,154.227294 C14.0925151,154.305188 15.8137103,154.305188 17.5312333,154.227294 C18.0409307,154.086384 19.3211009,150 19.3211009,150 L10.8340465,150.905849 Z" id="Shape" fill="#FFFFFF"></path>
                <path d="M36.4954128,81.8981637 L13.0540772,76.4285714 L12.6540544,91.2112534 L13.8541227,98.5229953 C13.8541227,98.5229953 16.8485791,113.919727 15.9342413,118.991324 C14.2084286,128.509097 10.733945,152.366071 10.733945,152.366071 L20.3459212,153.571429 C20.3459212,153.571429 25.6947974,132.22751 27.7520575,124.597372 C30.6322216,113.953841 36.4954128,81.8981637 36.4954128,81.8981637 Z" id="Shape" fill="url(#linearGradient-16)"></path>
                <path d="M52.9508513,163.10473 L40.0007786,160.839547 C39.8232604,160.757188 39.6319572,160.715057 39.4387294,160.715766 L31.3521029,160.715766 C31.0056106,160.698164 30.6681518,160.838136 30.4217857,161.101644 C30.1754196,161.365152 30.0427176,161.728056 30.0559486,162.102108 C30.2624156,164.577718 30.3656492,166.719121 30.3656492,168.575828 C30.4146654,169.299728 30.9900036,169.849166 31.6618035,169.813633 C31.6618035,169.813633 42.9601398,170.506804 46.4012574,169.219487 C48.6953358,168.377779 52.3888021,166.582962 52.3888021,166.582962 C53.6964268,165.369913 54.2011241,163.698876 52.9508513,163.10473 Z" id="Shape" fill="#44284F"></path>
                <rect id="Rectangle-path" fill="#FFFFFF" x="30.0550459" y="150.714286" width="8.58715596" height="11.4285714" rx="1.3"></rect>
                <path d="M20.8820655,30.2701472 L77.4991948,14.2942475 C77.6945081,14.2542176 77.8908302,14.3580593 77.9677063,14.5420598 C78.0445824,14.7260603 77.9805091,14.9387518 77.8147989,15.0496359 L70.6573478,19.0746155 C70.4963564,19.1675861 70.3974442,19.3396513 70.3981015,19.5255936 L70.3981015,21.9721499 C70.3981015,23.0995952 69.4625607,24.5652741 68.3015883,24.5652741 L62.2262085,24.091747 L20.0366972,40 L20.8820655,30.2701472 Z" id="Shape" fill="url(#linearGradient-17)"></path>
                <path d="M38.9865906,159.897626 L40.7889908,120.085458 L35.9293548,76.4285714 L15.6352412,77.9073091 C15.6352412,77.9073091 13.7872106,83.2535146 16.5364413,94.9696669 C17.3577882,98.4503879 23.7574497,105.207082 24.7955409,109.142799 C29.2901338,126.341655 28.5144173,146.80511 29.6437693,160 L38.9865906,159.897626 Z" id="Shape" fill="url(#linearGradient-18)"></path>
                <polygon id="Shape" fill="#00FAFE" points="28.6343445 25.7142857 30.0550459 41.4285714 18.4490089 41.4285714 12.1651376 29.6723067"></polygon>
                <path d="M22.790232,26.0656544 L18.8142308,27.5553535 C16.8205011,28.1626924 18.9402712,30.6035073 19.0548533,31.4285714 L7.59663665,29.6982285 C8.02606728,26.8964686 8.30147833,24.0732571 8.42162825,21.2413208 C8.23829678,18.6859138 3.76959227,12.0739412 3.76959227,12.0739412 C3.01647472,9.40816545 4.54962867,6.63291272 7.20705728,5.85158232 L14.7465639,3.85767726 C17.3658399,2.93874128 20.2359159,4.30483343 21.1746234,6.9172902 L22.9735634,12.520851 L26.9610229,16.1419659 C27.1220795,16.295085 27.2063572,16.5121288 27.19084,16.7338233 C27.1753227,16.9555177 27.0616316,17.1587025 26.8808153,17.2878884 L25.3110397,18.3650555 L25.8954087,21.5850976 C26.7318585,24.1978008 25.5058293,25.1832941 22.790232,26.0656544 Z" id="Shape" fill="url(#linearGradient-19)"></path>
                <path d="M18.8961155,5.56799767 C17.118963,6.44989738 15.644344,7.81940329 14.6534038,9.50828237 C14.0325192,10.4400306 14.4004508,13.9986353 14.4004508,13.9986353 L14.9638461,16.4122 C15.0065235,16.5457277 14.9500692,16.6904277 14.8272188,16.7623943 C14.7043684,16.8343609 14.5470318,16.8149011 14.4464423,16.7152988 C13.5036174,15.8845835 11.8939165,14.604833 10.7786237,14.6385106 C9.12293138,14.6385106 8.98495702,17.2541412 9.75531388,18.1634377 C10.5234422,18.8700495 11.4311075,19.4162815 12.4228183,19.7687388 C12.4228183,19.7687388 13.1816773,19.8809977 13.8485533,22.0139153 C14.5154294,24.1468329 8.5480382,25 8.5480382,25 C8.5480382,25 8.5480382,24.3039953 6.54740992,21.6322353 C4.54678164,18.9604753 1.66081786,16.8051059 0.568520812,14.1445718 C-0.36077016,12.2944552 -0.138130576,10.0902924 1.143414,8.45304943 C2.17822173,7.3304612 2.56914909,6.98245884 4.5927731,4.51276473 C6.27825051,2.26106048 8.88544111,0.838685882 11.7329464,0.617383555 C14.3314636,0.516350614 18.5281839,-1.33591997 19.5629916,1.90836002 C20.5977993,5.15264002 19.7354595,5.06283296 18.8961155,5.56799767 Z" id="Shape" fill="#44284F"></path>
                <path d="M17.951719,29.2910029 C26.7330881,37.2542369 30.3835156,43.5793199 33.4575599,53.9201481 C36.0795388,62.7138337 37.2323054,76.1716992 37.9104034,82.451278 C38.3737703,86.7741765 28.7786837,90.5396486 24.4614598,90.7102893 C22.0090054,90.8126738 16.4373002,88.9242497 13.1598265,87.7525167 C11.7009901,87.2185289 10.7119222,85.8445378 10.6621656,84.2828218 C10.534803,78.2104951 9.95300508,72.1564631 8.92171404,66.1721525 C6.92132495,56.4115027 3.2708974,50.2456844 3.59864477,43.8637211 C3.73426437,40.7353078 5.51992243,28.8359609 5.51992243,28.8359609 C5.51992243,28.8359609 14.7307535,26.3559823 17.951719,29.2910029 Z" id="Shape" fill="url(#linearGradient-20)"></path>
                <path d="M44.3669725,49.2857143 L35.3623391,30.0340854 C34.2893944,28.1112815 32.0073361,27.3333567 30.0550459,28.2248962 C41.5578822,47.4997198 44.3669725,49.2857143 44.3669725,49.2857143 Z" id="Shape" fill="#F7E2EC"></path>
                <path d="M45.231458,48.0115724 C45.231458,48.0115724 42.3645049,46.2802448 30.670948,27.8571429 L30.2646082,28.0569114 C28.2441964,29.1667368 29.993715,31.7748266 31.1562983,33.7725123 L37.8609053,52.1956142 C38.9582801,54.0549078 41.3074687,54.7977051 43.3013439,53.9158436 L43.673822,53.7271733 C45.7038525,52.5677951 46.3999114,50.0136716 45.231458,48.0115724 Z" id="Shape" fill="#F7E2EC"></path>
                <path d="M32.8085209,32.9398633 C30.4814333,34.4459073 28.5848568,33.066325 27.0606144,30.8245037 L27.5143965,28.0538424 C25.9901541,25.7545385 22.8602212,24.6048866 25.1291317,23.1563251 L25.6410909,22.2595966 C27.9267967,20.7513733 31.0164384,21.3526733 32.5525413,23.6046894 L34.2164089,26.0649446 C34.9599533,27.1588563 35.2295408,28.5012694 34.9650506,29.7928126 C34.7005605,31.0843558 33.9239896,32.2176154 32.8085209,32.9398633 Z" id="Shape" fill="#F7E2EC"></path>
                <path d="M42.1101308,47.1309556 L21.8536108,40.220172 C19.6388015,39.4767304 17.2495642,40.6750248 16.4587156,42.9259195 L18.5915812,41.2860725 L18.9679692,41.379778 L16.9605663,42.9259195 L16.9605663,43.0079118 C16.2233815,45.3198843 17.4406511,47.809597 19.6865282,48.5833915 L39.9430481,55.4941751 C41.6154273,56.0566475 43.4528272,55.5188476 44.5851673,54.1354447 L44.3114305,53.8426149 C44.558201,53.4840943 44.7504907,53.0891467 44.8817154,52.6712957 C45.5927781,50.35653 44.356566,47.8853678 42.1101308,47.1309556 Z" id="Shape" fill="url(#linearGradient-21)"></path>
                <path d="M30.7706422,40.2003809 C29.6168677,40.9546274 28.5494612,41.8264665 27.5866202,42.8010348 C24.461344,46.2229477 26.2237178,52.1428571 26.2237178,52.1428571 C26.2237178,52.1428571 11.725256,44.0443298 9.64565497,39.7441259 C8.94070545,38.2841097 9.37542432,33.0942084 10.4680961,31.8851325 C13.6756164,28.3605621 19.056731,29.0449447 20.1376536,30.3110525 C23.4512767,33.8336078 27.0035095,37.1374012 30.7706422,40.2003809 Z" id="Shape" fill="url(#linearGradient-22)"></path>
            </g>
        </g>
    </g>
</svg>